<svg width="64" height="64" viewBox="0 0 64 64" fill="none" xmlns="http://www.w3.org/2000/svg">
<path d="M62.1157 25.2331H55.4229V27.1062L58.7694 28.0427L62.1157 27.1062V25.2331Z" fill="#BCDDFE"/>
<path d="M55.4229 27.1063H62.1157V28.9794H55.4229V27.1063Z" fill="#ACD1FE"/>
<path d="M11.0951 16.2429C8.67749 16.6484 6.46124 17.8457 4.78737 19.6717C2.92237 21.7062 1.89287 24.3456 1.88574 27.1065L11.0951 30.7564V16.2429Z" fill="#FB6867"/>
<path d="M1.88539 27.1063C1.88539 27.1159 1.88477 27.1256 1.88477 27.1352C1.88477 29.9066 2.91552 32.5572 4.78702 34.5988C6.46089 36.4248 8.67714 37.6222 11.0948 38.0277V27.1063H1.88539Z" fill="#E2336C"/>
<path d="M44.3575 63.9998H32.959L38.9859 42.1235H50.3844L44.3575 63.9998Z" fill="#537983"/>
<path d="M52.2289 45.8699H35.9688V34.7361H52.2289V45.8699Z" fill="#ACD1FE"/>
<path d="M13.5845 8.93866L13.5557 27.1062L19.5964 30.756L26.6542 27.1062L24.3862 14.3464C20.31 13.77 16.5465 11.9008 13.5845 8.93866Z" fill="#EDF6FF"/>
<path d="M13.5264 45.3315C16.5025 42.3554 20.2876 40.4828 24.3857 39.9159L26.6537 27.1061H13.5554L13.5264 45.3315Z" fill="#D7E9FE"/>
<path d="M57.2956 20.7552L33.0406 14.5378H33.0207L30.6992 27.1062L44.9181 29.6782L57.2956 27.1062V20.7552Z" fill="#EDF6FF"/>
<path d="M30.6992 27.1063L33.0207 39.7323H52.25L57.2956 34.6869V27.1063H30.6992Z" fill="#D7E9FE"/>
<path d="M27.1027 14.5381C26.1854 14.5381 25.2782 14.4728 24.3857 14.3467V27.1064L28.7035 29.6784L33.0213 27.1064V14.5381H27.1027Z" fill="#9FFCFE"/>
<path d="M10.3291 5.32434V27.1062L12.2021 29.6782L14.0752 27.1062V5.32434H10.3291Z" fill="#D7E9FE"/>
<path d="M24.3857 39.916C25.2596 39.7951 26.1475 39.7323 27.045 39.7323H33.0211V27.1063H24.3857V39.916Z" fill="#7BE2F6"/>
<path d="M10.3291 27.1063H14.0752V48.8882H10.3291V27.1063Z" fill="#BCDDFE"/>
<path d="M46.5448 1.82172C40.0761 1.82172 34.8135 7.08434 34.8135 13.5531C34.8135 20.0218 40.0761 25.2845 46.5448 25.2845L47.4293 14.6617L46.5448 1.82172Z" fill="#FFEF9D"/>
<path d="M58.2753 13.5529C58.2753 7.08419 53.0127 1.82156 46.5439 1.82156V25.2843C53.0127 25.2843 58.2753 20.0217 58.2753 13.5529Z" fill="#FDDF5B"/>
<path d="M44.8145 7.25919L45.3883 15.7192H46.5442L47.401 11.9254L46.5442 7.25919H44.8145Z" fill="#FB6867"/>
<path d="M46.5443 23.3529C41.1407 23.3529 36.7447 18.9568 36.7447 13.5531C36.7447 8.1495 41.1408 3.7535 46.5443 3.7535L48.2578 1.82187L46.5443 0C39.0711 0 32.9912 6.07988 32.9912 13.5531C32.9912 21.0264 39.0711 27.1063 46.5443 27.1063L48.2578 25.2844L46.5443 23.3529Z" fill="#FDDF5B"/>
<path d="M60.0972 13.5531C60.0972 6.07988 54.0172 0 46.5439 0V3.7535C51.9476 3.7535 56.3437 8.14963 56.3437 13.5531C56.3437 18.9568 51.9476 23.3527 46.5439 23.3529V27.1064C54.0172 27.1064 60.0972 21.0264 60.0972 13.5531Z" fill="#FBC551"/>
<path d="M48.2574 7.25919H46.5439V15.7192H47.6836L48.2574 7.25919Z" fill="#E2336C"/>
<path d="M44.8789 18.699C44.8789 19.619 45.6248 20.3649 46.5448 20.3649L47.0932 18.699L46.5448 17.0331C45.6248 17.0331 44.8789 17.779 44.8789 18.699Z" fill="#FB6867"/>
<path d="M48.2108 18.699C48.2108 17.779 47.4649 17.0331 46.5449 17.0331V20.3649C47.465 20.365 48.2108 19.6191 48.2108 18.699Z" fill="#E2336C"/>
</svg>
