<svg width="18" height="29" viewBox="0 0 18 29" fill="none" xmlns="http://www.w3.org/2000/svg">
<path d="M15.1437 19.5304L9.92643 24.7475V1.63473C9.92643 0.983476 9.39852 0.455566 8.74727 0.455566C8.09602 0.455566 7.56811 0.983476 7.56811 1.63473V24.7475L2.35092 19.5304C1.89046 19.0699 1.14382 19.0699 0.683237 19.5304C0.222775 19.9908 0.222775 20.7375 0.683237 21.198L7.91337 28.4282C8.14366 28.6585 8.44541 28.7735 8.74715 28.7735C9.0489 28.7735 9.35076 28.6585 9.58094 28.4282L16.8111 21.198C17.2715 20.7376 17.2717 19.9909 16.8111 19.5304C16.3507 19.0699 15.6041 19.0699 15.1437 19.5304Z" fill="#C9849D"/>
</svg>
