<svg width="18" height="29" viewBox="0 0 18 29" fill="none" xmlns="http://www.w3.org/2000/svg">
<path d="M15.6035 9.49312C15.8338 9.72341 16.1355 9.83849 16.4372 9.83849C16.739 9.83849 17.0409 9.72341 17.271 9.49312C17.7315 9.03266 17.7315 8.28601 17.271 7.82543L10.0409 0.595302C9.58043 0.13484 8.83379 0.134958 8.37333 0.595302L1.1432 7.82543C0.682736 8.2859 0.682736 9.03254 1.1432 9.49312C1.60366 9.95358 2.3503 9.95358 2.81088 9.49312L8.02807 4.27593V27.3887C8.02807 28.04 8.55598 28.5679 9.20723 28.5679C9.85848 28.5679 10.3864 28.04 10.3864 27.3887V4.27593L15.6035 9.49312Z" fill="#C9849D"/>
</svg>
