<svg width="32" height="32" viewBox="0 0 32 32" fill="none" xmlns="http://www.w3.org/2000/svg">
<g clip-path="url(#clip0)">
<path d="M18.0025 5.57333C17.6345 5.57333 17.3358 5.27467 17.3358 4.90667V2.66667C17.3358 1.932 16.7372 1.33333 16.0025 1.33333C15.2679 1.33333 14.6692 1.932 14.6692 2.66667V4.90667C14.6692 5.27467 14.3706 5.57333 14.0026 5.57333C13.6346 5.57333 13.3359 5.276 13.3359 4.90667V2.66667C13.3359 1.196 14.5319 0 16.0025 0C17.4732 0 18.6692 1.196 18.6692 2.66667V4.90667C18.6692 5.276 18.3705 5.57333 18.0025 5.57333Z" fill="#C9849D"/>
<path d="M16.0026 32.0007C13.4293 32.0007 11.3359 29.9072 11.3359 27.3337C11.3359 26.9657 11.6346 26.667 12.0026 26.667C12.3706 26.667 12.6693 26.9657 12.6693 27.3337C12.6693 29.1711 14.1653 30.6673 16.0026 30.6673C17.8399 30.6673 19.3359 29.1711 19.3359 27.3337C19.3359 26.9657 19.6346 26.667 20.0026 26.667C20.3706 26.667 20.6693 26.9657 20.6693 27.3337C20.6693 29.9072 18.5759 32.0007 16.0026 32.0007Z" fill="#C9849D"/>
<path d="M27.3307 28H4.66406C3.5614 28 2.66406 27.1027 2.66406 26C2.66406 25.4147 2.91873 24.8613 3.36406 24.48C5.4654 22.704 6.66406 20.12 6.66406 17.384V13.3333C6.66406 8.18667 10.8507 4 15.9974 4C21.1441 4 25.3307 8.18667 25.3307 13.3333V17.384C25.3307 20.1213 26.5294 22.704 28.6201 24.4707C29.0761 24.8613 29.3307 25.4147 29.3307 26C29.3307 27.1027 28.4347 28 27.3307 28ZM15.9974 5.33333C11.5854 5.33333 7.9974 8.92133 7.9974 13.3333V17.384C7.9974 20.5147 6.62673 23.468 4.23606 25.4893C4.08273 25.62 3.9974 25.8053 3.9974 26C3.9974 26.368 4.29606 26.6667 4.66406 26.6667H27.3307C27.6987 26.6667 27.9974 26.368 27.9974 26C27.9974 25.8053 27.9121 25.62 27.7641 25.4933C25.3694 23.468 23.9974 20.5133 23.9974 17.384V13.3333C23.9974 8.92133 20.4094 5.33333 15.9974 5.33333Z" fill="#C9849D"/>
</g>
<defs>
<clipPath id="clip0">
<rect width="32" height="32" fill="white"/>
</clipPath>
</defs>
</svg>
