<svg width="24" height="24" viewBox="0 0 24 24" fill="none" xmlns="http://www.w3.org/2000/svg">
<g clip-path="url(#clip0)">
<path d="M5.73703 24.0001C5.24124 24.0001 4.83887 23.5977 4.83887 23.102V0.89816C4.83887 0.402374 5.24124 0 5.73703 0C6.23281 0 6.63519 0.402374 6.63519 0.89816V23.102C6.63519 23.5977 6.23281 24.0001 5.73703 24.0001Z" fill="#C9849D"/>
<path d="M14.2761 12.2988H6.03697C5.54119 12.2988 5.13881 11.8964 5.13881 11.4007C5.13881 10.9049 5.54119 10.5025 6.03697 10.5025H14.2761C16.6664 10.5025 18.6112 8.5529 18.6112 6.15533C18.6112 3.74591 16.6664 1.79632 14.2761 1.79632H3.34249C2.84671 1.79632 2.44434 1.39394 2.44434 0.898159C2.44434 0.402373 2.84671 0 3.34249 0H14.2761C17.6569 0 20.4075 2.75565 20.4075 6.14349C20.4075 9.54316 17.6569 12.2988 14.2761 12.2988Z" fill="#C9849D"/>
<path d="M14.8749 24H3.34249C2.84671 24 2.44434 23.5976 2.44434 23.1019C2.44434 22.6061 2.84671 22.2037 3.34249 22.2037H14.8749C17.5957 22.2037 19.8089 19.9833 19.8089 17.2566C19.8089 14.5165 17.5957 12.2974 14.8749 12.2974H6.03697C5.54119 12.2974 5.13881 11.895 5.13881 11.3993C5.13881 10.9035 5.54119 10.5011 6.03697 10.5011H14.8749C18.5862 10.5011 21.6052 13.5249 21.6052 17.2434C21.6052 20.9749 18.5862 24 14.8749 24Z" fill="#C9849D"/>
</g>
<defs>
<clipPath id="clip0">
<rect width="24" height="24" fill="white"/>
</clipPath>
</defs>
</svg>
