<svg width="30" height="32" viewBox="0 0 30 32" fill="none" xmlns="http://www.w3.org/2000/svg">
<path d="M27.0513 2.14212H25.0472V1.42544C25.0472 0.639437 24.4077 0 23.6217 0H23.4065C22.6206 0 21.9811 0.639437 21.9811 1.42544V2.14212H8.01863V1.42544C8.01863 0.639437 7.37919 0 6.59319 0H6.37794C5.59194 0 4.9525 0.639437 4.9525 1.42544V2.14212H2.94844C1.65437 2.14212 0.601562 3.19494 0.601562 4.489V29.6562C0.601562 30.9486 1.65294 32 2.94531 32H27.0546C28.3469 32 29.3983 30.9486 29.3983 29.6562V4.489C29.3982 3.19494 28.3454 2.14212 27.0513 2.14212ZM22.9186 1.42544C22.9186 1.15637 23.1375 0.9375 23.4066 0.9375H23.6218C23.8909 0.9375 24.1097 1.15637 24.1097 1.42544V2.14212H22.9186V1.42544ZM5.89006 1.42544C5.89006 1.15637 6.10894 0.9375 6.378 0.9375H6.59325C6.86231 0.9375 7.08119 1.15637 7.08119 1.42544V2.14212H5.89013L5.89006 1.42544ZM28.4607 29.6562C28.4607 30.4317 27.8299 31.0625 27.0545 31.0625H2.94525C2.16981 31.0625 1.539 30.4317 1.539 29.6562V29.6533C1.93175 29.9492 2.41994 30.125 2.94844 30.125H21.9536C22.5805 30.125 23.1699 29.8809 23.6131 29.4376L28.4607 24.5899V29.6562ZM23.1348 28.5901C23.1716 28.4384 23.1916 28.2802 23.1916 28.1174V24.9884C23.1916 24.3984 23.6716 23.9183 24.2617 23.9183H27.3906C27.5534 23.9183 27.7116 23.8983 27.8633 23.8616L23.1348 28.5901ZM28.4607 8.84087H6.61238C6.3535 8.84087 6.14363 9.05075 6.14363 9.30962C6.14363 9.5685 6.3535 9.77837 6.61238 9.77837H28.4607V21.9107C28.4607 22.5008 27.9807 22.9809 27.3906 22.9809H24.2617C23.1547 22.9809 22.2541 23.8815 22.2541 24.9884V28.1174C22.2541 28.7075 21.774 29.1876 21.184 29.1876H2.94844C2.17131 29.1876 1.53906 28.5553 1.53906 27.7781V9.77837H6.61238C6.87125 9.77837 7.08113 9.5685 7.08113 9.30962C7.08113 9.05075 6.87125 8.84087 6.61238 8.84087H1.539V4.489C1.539 3.71187 2.17125 3.07962 2.94837 3.07962H4.9525V4.45787C4.9525 5.24387 5.59194 5.88331 6.37794 5.88331C6.63681 5.88331 6.84669 5.67344 6.84669 5.41456C6.84669 5.15569 6.63681 4.94581 6.37794 4.94581C6.10888 4.94581 5.89 4.72694 5.89 4.45787V3.07962H21.9811V4.45787C21.9811 5.24387 22.6206 5.88331 23.4066 5.88331C23.6654 5.88331 23.8753 5.67344 23.8753 5.41456C23.8753 5.15569 23.6654 4.94581 23.4066 4.94581C23.1375 4.94581 22.9186 4.72694 22.9186 4.45787V3.07962H27.0514C27.8285 3.07962 28.4607 3.71187 28.4607 4.489V8.84087Z" fill="#C9849D"/>
</svg>
