<svg width="80" height="80" viewBox="0 0 80 80" fill="none" xmlns="http://www.w3.org/2000/svg">
<path d="M5 2.5H60C62.7612 2.5 65 4.73877 65 7.5V75C65 77.7612 62.7612 80 60 80H5C2.23877 80 0 77.7612 0 75V7.5C0 4.73877 2.23877 2.5 5 2.5Z" fill="#ECCE93"/>
<path d="M5 58.5352V7.5H60V75H21.4648L5 58.5352Z" fill="#EFEFEF"/>
<path d="M21.4648 58.5352V75L5 58.5352H21.4648Z" fill="#C9849D"/>
<path d="M20 10V0H45V10C45 12.7612 42.7612 15 40 15H25C22.2388 15 20 12.7612 20 10Z" fill="#C9849D"/>
<path d="M80 57.5C80 69.9261 69.9261 80 57.5 80C45.0739 80 35 69.9261 35 57.5C35 45.0739 45.0739 35 57.5 35C69.9261 35 80 45.0739 80 57.5Z" fill="#48C8EF"/>
<path d="M52.3445 67.1328L47.4995 62.2854C46.5236 61.3088 46.5236 59.7262 47.4995 58.7502C48.4755 57.7743 50.0581 57.7743 51.0347 58.7502L52.6546 60.3677L63.9772 50.9304C65.038 50.0454 66.6157 50.1888 67.4995 51.2502C68.3845 52.311 68.2411 53.8888 67.1797 54.7726L52.3445 67.1328Z" fill="white"/>
<path d="M27.5 20H47.5C48.8806 20 50 21.1194 50 22.5C50 23.8806 48.8806 25 47.5 25H27.5C26.1194 25 25 23.8806 25 22.5C25 21.1194 26.1194 20 27.5 20Z" fill="#77959E"/>
<path d="M15 20H20V25H15V20Z" fill="#77959E"/>
<path d="M15 30H20V35H15V30Z" fill="#77959E"/>
<path d="M15 40H20V45H15V40Z" fill="#77959E"/>
<path d="M15 50H20V55H15V50Z" fill="#77959E"/>
<path d="M27.5 30H42.5C43.8806 30 45 31.1194 45 32.5C45 33.8806 43.8806 35 42.5 35H27.5C26.1194 35 25 33.8806 25 32.5C25 31.1194 26.1194 30 27.5 30Z" fill="#77959E"/>
<path d="M27.5 40H32.5C33.8806 40 35 41.1194 35 42.5C35 43.8806 33.8806 45 32.5 45H27.5C26.1194 45 25 43.8806 25 42.5C25 41.1194 26.1194 40 27.5 40Z" fill="#77959E"/>
</svg>
