<svg width="30" height="32" viewBox="0 0 30 32" fill="none" xmlns="http://www.w3.org/2000/svg">
<path d="M29.0665 4.85388L24.6433 0.43075C24.3655 0.153 23.9962 0 23.6033 0H4.98017C4.16923 0 3.50942 0.659812 3.50942 1.47075V16.0322H2.47517C1.38792 16.0322 0.503418 16.9168 0.503418 18.004V27.0221C0.503418 28.1094 1.38792 28.9939 2.47517 28.9939H21.0125C21.8235 28.9939 22.4832 28.3341 22.4832 27.5232V20.5091C22.4832 19.6981 21.8234 19.0383 21.0125 19.0383H2.47517C1.90486 19.0383 1.44092 18.5744 1.44092 18.0041C1.44092 17.4338 1.90486 16.9698 2.47517 16.9698H3.50942V17.5033C3.50942 17.7621 3.71929 17.972 3.97817 17.972C4.23704 17.972 4.44692 17.7621 4.44692 17.5033V1.47075C4.44692 1.17669 4.68617 0.9375 4.98017 0.9375H23.0487V5.47881C23.0487 6.01356 23.4837 6.44863 24.0185 6.44863H28.5598V30.5292C28.5598 30.8233 28.3205 31.0625 28.0265 31.0625H4.98017C4.68611 31.0625 4.44692 30.8233 4.44692 30.5292C4.44692 30.2704 4.23704 30.0605 3.97817 30.0605C3.71929 30.0605 3.50942 30.2704 3.50942 30.5292C3.50942 31.3403 4.16923 32 4.98017 32H28.0265C28.8375 32 29.4973 31.3402 29.4973 30.5292V5.89388C29.4974 5.50106 29.3444 5.13169 29.0665 4.85388ZM2.47517 19.9758H21.0125C21.3065 19.9758 21.5457 20.2151 21.5457 20.5091V27.5233C21.5457 27.8173 21.3065 28.0565 21.0125 28.0565H2.47517C1.90486 28.0565 1.44092 27.5925 1.44092 27.0222V19.6822C1.74173 19.8684 2.09611 19.9758 2.47517 19.9758ZM23.9862 5.47881V1.09956L28.3979 5.51113H24.0185C24.0007 5.51113 23.9862 5.49663 23.9862 5.47881Z" fill="white"/>
<path d="M10.9927 16.4688H22.0148C22.2737 16.4688 22.4836 16.2589 22.4836 16C22.4836 15.7411 22.2737 15.5312 22.0148 15.5312H10.9927C10.7338 15.5312 10.5239 15.7411 10.5239 16C10.5239 16.2589 10.7338 16.4688 10.9927 16.4688Z" fill="white"/>
<path d="M10.9927 13.9639H22.0148C22.2737 13.9639 22.4836 13.754 22.4836 13.4951C22.4836 13.2362 22.2737 13.0264 22.0148 13.0264H10.9927C10.7338 13.0264 10.5239 13.2362 10.5239 13.4951C10.5239 13.754 10.7338 13.9639 10.9927 13.9639Z" fill="white"/>
<path d="M18.0063 11.4587H22.0144C22.2733 11.4587 22.4832 11.2489 22.4832 10.99C22.4832 10.7311 22.2733 10.5212 22.0144 10.5212H18.0063C17.7475 10.5212 17.5376 10.7311 17.5376 10.99C17.5376 11.2488 17.7475 11.4587 18.0063 11.4587Z" fill="white"/>
<path d="M18.0063 8.95361H22.0144C22.2733 8.95361 22.4832 8.7438 22.4832 8.48486C22.4832 8.22599 22.2733 8.01611 22.0144 8.01611H18.0063C17.7475 8.01611 17.5376 8.22599 17.5376 8.48486C17.5376 8.74374 17.7475 8.95361 18.0063 8.95361Z" fill="white"/>
<path d="M17.1941 26.5695C17.7553 26.5695 18.2588 26.3853 18.65 26.0368C18.7266 25.9685 18.7995 25.8934 18.8666 25.8135C19.0329 25.6151 19.007 25.3195 18.8086 25.1531C18.6103 24.9867 18.3146 25.0126 18.1483 25.211C18.1103 25.2563 18.0693 25.2986 18.0264 25.3368C17.8065 25.5326 17.5264 25.632 17.1941 25.632C16.3031 25.632 15.5782 24.9071 15.5782 24.0161C15.5782 23.1251 16.3031 22.4002 17.1941 22.4002C17.5179 22.4002 17.8303 22.4955 18.0972 22.6759C18.3118 22.8208 18.6031 22.7644 18.748 22.5499C18.8929 22.3353 18.8366 22.044 18.622 21.899C18.1994 21.6135 17.7057 21.4626 17.194 21.4626C15.7861 21.4626 14.6406 22.6081 14.6406 24.016C14.6406 25.424 15.7861 26.5695 17.1941 26.5695Z" fill="white"/>
<path d="M11.2385 26.5695C12.6464 26.5695 13.7919 25.424 13.7919 24.016C13.7919 22.6081 12.6464 21.4626 11.2385 21.4626C9.83056 21.4626 8.68506 22.6081 8.68506 24.016C8.68506 25.424 9.83056 26.5695 11.2385 26.5695ZM11.2385 22.4001C12.1295 22.4001 12.8544 23.125 12.8544 24.016C12.8544 24.907 12.1295 25.6319 11.2385 25.6319C10.3475 25.6319 9.62256 24.907 9.62256 24.016C9.62256 23.125 10.3475 22.4001 11.2385 22.4001Z" fill="white"/>
<path d="M11.4937 11.4587H15.0007C15.5355 11.4587 15.9705 11.0237 15.9705 10.4889V8.98593C15.9705 8.45118 15.5355 8.01611 15.0007 8.01611H11.4937C10.9589 8.01611 10.5239 8.45118 10.5239 8.98593V10.4889C10.5239 11.0237 10.959 11.4587 11.4937 11.4587ZM11.4614 8.98593C11.4614 8.96811 11.4759 8.95361 11.4937 8.95361H15.0007C15.0186 8.95361 15.033 8.96805 15.033 8.98593V10.4889C15.033 10.5067 15.0186 10.5212 15.0007 10.5212H11.4937C11.4759 10.5212 11.4614 10.5068 11.4614 10.4889V8.98593Z" fill="white"/>
<path d="M4.01893 26.0407C4.01937 26.165 4.06924 26.2841 4.15743 26.3717C4.24524 26.4589 4.36399 26.5077 4.48768 26.5077H4.48943C4.52405 26.5076 5.34087 26.5045 5.66705 26.4987C6.86124 26.4779 7.72799 25.4337 7.72799 24.0159C7.72799 22.5255 6.88299 21.5242 5.62537 21.5242H4.47949C4.35499 21.5242 4.23568 21.5737 4.14774 21.6618C4.05981 21.7499 4.01049 21.8693 4.01074 21.9938C4.01074 21.9938 4.01368 23.5501 4.01368 24.0114C4.01368 24.574 4.01893 26.0407 4.01893 26.0407ZM5.62543 22.4617C6.48449 22.4617 6.79055 23.2647 6.79055 24.016C6.79055 25.0698 6.21805 25.5515 5.65074 25.5614C5.49155 25.5642 5.20424 25.5664 4.95487 25.5679C4.9533 25.0894 4.95118 24.3682 4.95118 24.0115C4.95118 23.7136 4.94993 22.9594 4.94912 22.4617H5.62543Z" fill="white"/>
</svg>
