<svg width="64" height="64" viewBox="0 0 64 64" fill="none" xmlns="http://www.w3.org/2000/svg">
<path d="M63.9893 32C63.9893 14.3267 49.665 0 31.9946 0C14.3247 0 0 14.3267 0 32C0 49.6733 14.3247 64 31.9946 64C49.665 64 63.9893 49.6733 63.9893 32Z" fill="#F36986"/>
<path d="M51.7319 6.81299C55.9985 12.2505 58.5435 19.1045 58.5435 26.5532C58.5435 44.2261 44.2188 58.5532 26.5488 58.5532C19.1011 58.5532 12.2485 56.0078 6.81152 51.7402C12.6689 59.2046 21.772 64 31.9946 64C49.665 64 63.9893 49.6733 63.9893 32C63.9893 21.7754 59.1948 12.6709 51.7319 6.81299Z" fill="#FC476E"/>
<path d="M34.0264 27.6606H29.9629C29.1582 27.6606 28.5059 28.313 28.5059 29.1182V47.5181C28.5059 48.3232 29.1582 48.9756 29.9629 48.9756H34.0264C34.8311 48.9756 35.4839 48.3232 35.4839 47.5181V29.1182C35.4839 28.313 34.8315 27.6606 34.0264 27.6606Z" fill="#FFD2E3"/>
<path d="M34.0269 48.9756H31.3936C32.1982 48.9756 32.8506 48.3232 32.8506 47.5181V29.1182C32.8506 28.313 32.1982 27.6606 31.3936 27.6606H34.0269C34.8315 27.6606 35.4839 28.3135 35.4839 29.1182V47.5181C35.4839 48.3232 34.8315 48.9756 34.0269 48.9756Z" fill="#FFBBD7"/>
<path d="M31.9946 16.0601C30.0679 16.0601 28.5059 17.6226 28.5059 19.5493V19.5503C28.5059 21.4771 30.0679 23.0396 31.9946 23.0396C33.9214 23.0396 35.4839 21.4771 35.4839 19.5503V19.5493C35.4839 17.6226 33.9214 16.0601 31.9946 16.0601Z" fill="#FFD2E3"/>
<path d="M31.9951 23.0396C31.7144 23.0396 31.4414 23.0054 31.1797 22.9429C32.7134 22.5752 33.8535 21.1963 33.8535 19.5498C33.8535 17.9038 32.7134 16.5244 31.1797 16.1572C31.4414 16.0942 31.7144 16.0601 31.9951 16.0601C33.9224 16.0601 35.4844 17.6226 35.4844 19.5498C35.4844 21.4771 33.9219 23.0396 31.9951 23.0396Z" fill="#FFBBD7"/>
</svg>
