<svg width="64" height="64" viewBox="0 0 64 64" fill="none" xmlns="http://www.w3.org/2000/svg">
<g clip-path="url(#clip0)">
<path d="M36.8321 1.62666C36.5157 1.36966 36.0992 1.27141 35.7014 1.36003L1.03481 9.36003C0.424684 9.50028 -0.0058156 10.046 5.94007e-05 10.672V56.0054C0.000309401 56.6633 0.480434 57.2228 1.13068 57.3228L35.7973 62.6562C36.5252 62.768 37.2059 62.2688 37.3178 61.541C37.3281 61.4742 37.3333 61.4065 37.3333 61.3389V2.67203C37.3346 2.26541 37.1499 1.88053 36.8321 1.62666Z" fill="#4CAF50"/>
<path d="M62.6666 57.3385H35.9999C35.2635 57.3385 34.6665 56.7415 34.6665 56.0051C34.6665 55.2688 35.2635 54.6718 35.9999 54.6718H61.3333V9.3385H35.9999C35.2635 9.3385 34.6665 8.7415 34.6665 8.00513C34.6665 7.26875 35.2635 6.67188 35.9999 6.67188H62.6665C63.4029 6.67188 63.9999 7.26888 63.9999 8.00525V56.0052C63.9999 56.7416 63.403 57.3385 62.6666 57.3385Z" fill="#4CAF50"/>
<path d="M25.3333 44.0053C24.8736 44.0053 24.4463 43.7685 24.2027 43.3787L10.8693 22.0453C10.4594 21.4336 10.6232 20.6053 11.2349 20.1955C11.8467 19.7856 12.6749 19.9493 13.0848 20.5611C13.1009 20.5851 13.1162 20.6096 13.1307 20.6346L26.4641 41.968C26.8528 42.5933 26.6611 43.4155 26.0357 43.8043C25.8248 43.9353 25.5816 44.005 25.3333 44.0053Z" fill="#FAFAFA"/>
<path d="M12.0001 44.0051C11.2637 44.0036 10.6679 43.4055 10.6694 42.6691C10.6699 42.4201 10.7402 42.1763 10.8721 41.9651L24.2054 20.6318C24.5747 19.9946 25.3906 19.7775 26.0276 20.1468C26.6647 20.516 26.8818 21.3319 26.5126 21.9689C26.4981 21.9939 26.4828 22.0184 26.4667 22.0424L13.1334 43.3758C12.8899 43.7674 12.4613 44.0055 12.0001 44.0051Z" fill="#FAFAFA"/>
<path d="M46.6664 57.3386C45.93 57.3386 45.333 56.7416 45.333 56.0052V8.00525C45.333 7.26888 45.93 6.67188 46.6664 6.67188C47.4028 6.67188 47.9998 7.26888 47.9998 8.00525V56.0052C47.9996 56.7417 47.4028 57.3386 46.6664 57.3386Z" fill="#4CAF50"/>
<path d="M62.6666 49.3386H35.9999C35.2635 49.3386 34.6665 48.7416 34.6665 48.0052C34.6665 47.2689 35.2635 46.6719 35.9999 46.6719H62.6665C63.4029 46.6719 63.9999 47.2689 63.9999 48.0052C63.9999 48.7417 63.403 49.3386 62.6666 49.3386Z" fill="#4CAF50"/>
<path d="M62.6666 41.3386H35.9999C35.2635 41.3386 34.6665 40.7416 34.6665 40.0052C34.6665 39.2689 35.2635 38.6719 35.9999 38.6719H62.6665C63.4029 38.6719 63.9999 39.2689 63.9999 40.0052C63.9999 40.7417 63.403 41.3386 62.6666 41.3386Z" fill="#4CAF50"/>
<path d="M62.6666 33.3386H35.9999C35.2635 33.3386 34.6665 32.7416 34.6665 32.0052C34.6665 31.2689 35.2635 30.6719 35.9999 30.6719H62.6665C63.4029 30.6719 63.9999 31.2689 63.9999 32.0052C63.9999 32.7417 63.403 33.3386 62.6666 33.3386Z" fill="#4CAF50"/>
<path d="M62.6666 25.3386H35.9999C35.2635 25.3386 34.6665 24.7416 34.6665 24.0052C34.6665 23.2689 35.2635 22.6719 35.9999 22.6719H62.6665C63.4029 22.6719 63.9999 23.2689 63.9999 24.0052C63.9999 24.7416 63.403 25.3386 62.6666 25.3386Z" fill="#4CAF50"/>
<path d="M62.6666 17.3386H35.9999C35.2635 17.3386 34.6665 16.7416 34.6665 16.0052C34.6665 15.2689 35.2635 14.6719 35.9999 14.6719H62.6665C63.4029 14.6719 63.9999 15.2689 63.9999 16.0052C63.9999 16.7417 63.403 17.3386 62.6666 17.3386Z" fill="#4CAF50"/>
</g>
<defs>
<clipPath id="clip0">
<rect width="64" height="64" fill="white"/>
</clipPath>
</defs>
</svg>
