<svg width="24" height="22" viewBox="0 0 24 22" fill="none" xmlns="http://www.w3.org/2000/svg">
<path d="M6.49971 22.0003C5.08575 22.0034 3.72917 21.4414 2.73165 20.4393L1.5606 19.2682C-0.520169 17.1875 -0.520215 13.8139 1.56055 11.7332L1.5606 11.7331L11.1468 2.14693C11.3387 1.94831 11.6552 1.94278 11.8538 2.13464C12.0524 2.32651 12.058 2.64301 11.8661 2.84167C11.8621 2.84584 11.858 2.84992 11.8538 2.85395L2.26763 12.4391C0.577756 14.1296 0.577756 16.8697 2.26763 18.5602L3.43966 19.7323C5.13014 21.4221 7.87027 21.4221 9.56075 19.7323L22.086 7.20703C23.3044 5.98793 23.3044 4.01207 22.086 2.79297L21.2069 1.91395C19.971 0.736807 18.0288 0.736807 16.7929 1.91395L5.56065 13.1461C4.81312 13.8935 4.81303 15.1054 5.56046 15.8529C5.56051 15.853 5.5606 15.8531 5.56065 15.8531L6.14664 16.4391C6.90828 17.1518 8.09203 17.1518 8.85367 16.4391L17.1468 8.146C17.3387 7.94739 17.6552 7.94186 17.8538 8.13372C18.0524 8.32558 18.0579 8.64209 17.8661 8.84075C17.8621 8.84492 17.858 8.849 17.8538 8.85303L9.56075 17.1462C8.4016 18.232 6.59881 18.232 5.43966 17.1462L4.85367 16.5602C3.71567 15.4222 3.71567 13.5771 4.85367 12.4391L16.0859 1.20692C17.6952 -0.402463 20.3045 -0.402463 21.9139 1.20688C21.9139 1.20688 21.9139 1.20688 21.914 1.20692L22.793 2.08594C24.4024 3.69533 24.4024 6.30462 22.793 7.91401C22.793 7.91401 22.793 7.91401 22.793 7.91406L10.2678 20.4393C9.27026 21.4414 7.91367 22.0034 6.49971 22.0003Z" fill="#C9849D"/>
</svg>
