<svg width="32" height="32" viewBox="0 0 32 32" fill="none" xmlns="http://www.w3.org/2000/svg">
<g clip-path="url(#clip0)">
<path d="M18 30.0002C10.9611 30.0002 5.13551 24.7727 4.15983 18.0002H0L5 13.0002L9.99999 18.0002H6.18064C7.13734 23.6665 12.0656 28.0002 18 28.0002C24.6172 28.0002 30 22.6174 30 16.0002C30 9.383 24.6172 4.00019 18 4.00019C14.2803 4.00019 10.8311 5.68377 8.53711 8.61936L6.96094 7.3889C9.6367 3.96507 13.6601 2.00023 18 2.00023C25.7197 2.00023 32 8.28149 32 16.0002C32 23.7189 25.7197 30.0002 18 30.0002Z" fill="#C9849D"/>
<path d="M18.5005 9.83325V16.6905L23.0511 21.2411C23.5392 21.7293 23.5392 22.5207 23.0511 23.0088C22.5629 23.497 21.7714 23.4969 21.2833 23.0088L16.3666 18.0921C16.1322 17.8578 16.0005 17.5398 16.0005 17.2083V9.83325C16.0005 9.14288 16.5601 8.58325 17.2505 8.58325C17.9409 8.58325 18.5005 9.14288 18.5005 9.83325Z" fill="#C9849D"/>
</g>
<defs>
<clipPath id="clip0">
<rect width="32" height="32" fill="white" transform="matrix(1 0 0 -1 0 32)"/>
</clipPath>
</defs>
</svg>
