<svg width="10" height="32" viewBox="0 0 10 32" fill="none" xmlns="http://www.w3.org/2000/svg">
<path d="M4.85882 0H4.72082C2.11781 0 0 2.11781 0 4.72082C0 7.32383 2.11781 9.44163 4.72082 9.44163H4.85882C7.46193 9.44163 9.57963 7.32383 9.57963 4.72082C9.57963 2.11781 7.46193 0 4.85882 0ZM4.85882 7.39574H4.72082C3.24586 7.39574 2.04599 6.19587 2.04599 4.72092C2.04599 3.24597 3.24586 2.04609 4.72082 2.04609H4.85882C6.33377 2.04609 7.53364 3.24597 7.53364 4.72092C7.53364 6.19587 6.33377 7.39574 4.85882 7.39574Z" fill="#C9849D"/>
<path d="M8.55674 11.272H1.023C0.458097 11.272 0 11.7301 0 12.295V30.9769C0 31.5418 0.458097 31.9999 1.023 31.9999H8.55674C9.12164 31.9999 9.57974 31.5418 9.57974 30.9769V12.295C9.57974 11.73 9.12164 11.272 8.55674 11.272ZM7.53375 29.9539H2.04599V13.318H7.53375V29.9539Z" fill="#C9849D"/>
</svg>
