<svg width="24" height="24" viewBox="0 0 24 24" fill="none" xmlns="http://www.w3.org/2000/svg">
<g clip-path="url(#clip0)">
<path d="M11.1264 23.9999H6.93525C6.43947 23.9999 6.03711 23.5975 6.03711 23.1017C6.03711 22.606 6.43947 22.2036 6.93525 22.2036H11.1264C11.6222 22.2036 12.0245 22.606 12.0245 23.1017C12.0245 23.5975 11.6222 23.9999 11.1264 23.9999Z" fill="#C9849D"/>
<path d="M17.114 1.79664H12.9226C12.4268 1.79664 12.0244 1.39428 12.0244 0.898505C12.0244 0.402731 12.4268 0.000366211 12.9226 0.000366211H17.114C17.6097 0.000366211 18.0121 0.402731 18.0121 0.898505C18.0121 1.39428 17.6097 1.79664 17.114 1.79664Z" fill="#C9849D"/>
<path d="M9.03134 24.0001C8.9546 24.0001 8.87566 23.9904 8.7965 23.97C8.31761 23.8409 8.03387 23.3475 8.16302 22.8684L14.1507 0.665117C14.2787 0.186227 14.7721 -0.0988269 15.2512 0.0316401C15.7303 0.161011 16.0141 0.654373 15.8847 1.13348L9.89703 23.3365C9.79046 23.7367 9.42779 24.0001 9.03134 24.0001Z" fill="#C9849D"/>
</g>
<defs>
<clipPath id="clip0">
<rect width="24" height="24" fill="white"/>
</clipPath>
</defs>
</svg>
