<svg width="128" height="128" viewBox="0 0 128 128" fill="none" xmlns="http://www.w3.org/2000/svg">
<g clip-path="url(#clip0)">
<path d="M120.273 54.3418H112.547V96.8368H120.273C124.541 96.8368 128 93.3777 128 89.1104V62.0682C128 57.8009 124.541 54.3418 120.273 54.3418Z" fill="#ACD5DF"/>
<path d="M120.274 89.1104L104.821 75.5893L120.274 62.0682C120.274 57.8009 116.815 54.3418 112.547 54.3418H7.72636C3.45909 54.3418 0 57.8009 0 62.0682V89.1104C0 93.3777 3.45909 96.8368 7.72636 96.8368H112.547C116.815 96.8368 120.274 93.3777 120.274 89.1104Z" fill="#C4F3FF"/>
<path d="M112.548 62.0684L90.6562 75.5895L112.548 89.1106H120.274V62.0684H112.548Z" fill="#A61E2E"/>
<path d="M55.96 62.0684L45.6582 75.5895L55.96 89.1106H112.546V62.0684H55.96Z" fill="#C9849D"/>
<path d="M39.8819 62.0684L29.5801 75.5895L39.8819 89.1106H55.9602V62.0684H39.8819Z" fill="#2DB94D"/>
<path d="M23.8038 62.0684L13.502 75.5895L23.8038 89.1106H39.882V62.0684H23.8038Z" fill="#61CE5A"/>
<path d="M7.72656 62.0684H23.8049V89.1106H7.72656V62.0684Z" fill="#94E368"/>
<path d="M63.9999 38.8885C66.1335 38.8885 67.8631 37.1589 67.8631 35.0253C67.8631 32.8917 66.1335 31.1621 63.9999 31.1621C61.8663 31.1621 60.1367 32.8917 60.1367 35.0253C60.1367 37.1589 61.8663 38.8885 63.9999 38.8885Z" fill="#A61E2E"/>
<path d="M48.5468 38.8885C50.6804 38.8885 52.41 37.1589 52.41 35.0253C52.41 32.8917 50.6804 31.1621 48.5468 31.1621C46.4132 31.1621 44.6836 32.8917 44.6836 35.0253C44.6836 37.1589 46.4132 38.8885 48.5468 38.8885Z" fill="#A61E2E"/>
<path d="M79.453 38.8885C81.5866 38.8885 83.3162 37.1589 83.3162 35.0253C83.3162 32.8917 81.5866 31.1621 79.453 31.1621C77.3194 31.1621 75.5898 32.8917 75.5898 35.0253C75.5898 37.1589 77.3194 38.8885 79.453 38.8885Z" fill="#A61E2E"/>
</g>
<defs>
<clipPath id="clip0">
<rect width="128" height="128" fill="white"/>
</clipPath>
</defs>
</svg>
