<svg width="30" height="32" viewBox="0 0 30 32" fill="none" xmlns="http://www.w3.org/2000/svg">
<path d="M14.4576 30.1664H6.11122C3.84297 30.1664 2.00256 28.3192 2.00256 26.0577V5.94228C2.00256 3.67402 3.84976 1.83362 6.11122 1.83362H14.5934C15.1027 1.83362 15.5102 1.42615 15.5102 0.916808C15.5102 0.40747 15.1027 0 14.5934 0H6.11122C2.83108 0 0.168945 2.66893 0.168945 5.94228V26.0577C0.168945 29.3379 2.83788 32 6.11122 32H14.4576C14.9669 32 15.3744 31.5925 15.3744 31.0832C15.3744 30.5739 14.9601 30.1664 14.4576 30.1664Z" fill="white"/>
<path d="M29.5615 15.3548L23.7346 9.52801C23.3747 9.16807 22.7975 9.16807 22.4375 9.52801C22.0776 9.88794 22.0776 10.4652 22.4375 10.8251L26.7024 15.09H8.10138C7.59204 15.09 7.18457 15.4974 7.18457 16.0068C7.18457 16.5161 7.59204 16.9236 8.10138 16.9236H26.7024L22.4375 21.1884C22.0776 21.5484 22.0776 22.1256 22.4375 22.4855C22.6141 22.6621 22.8518 22.7572 23.0827 22.7572C23.3136 22.7572 23.5513 22.6689 23.7279 22.4855L29.5547 16.6587C29.9214 16.292 29.9214 15.708 29.5615 15.3548Z" fill="white"/>
</svg>
