<?xml version="1.0" encoding="UTF-8"?>
<!DOCTYPE svg PUBLIC "-//W3C//DTD SVG 1.1//EN" "http://www.w3.org/Graphics/SVG/1.1/DTD/svg11.dtd">
<!-- Creator: CorelDRAW 2020 (64-Bit) -->
<svg xmlns="http://www.w3.org/2000/svg" xml:space="preserve" width="7.89113in" height="3.67237in" version="1.1" style="shape-rendering:geometricPrecision; text-rendering:geometricPrecision; image-rendering:optimizeQuality; fill-rule:evenodd; clip-rule:evenodd"
viewBox="0 0 7912.12 3682.14"
 xmlns:xlink="http://www.w3.org/1999/xlink"
 xmlns:xodm="http://www.corel.com/coreldraw/odm/2003">
 <defs>
  <style type="text/css">
   <![CDATA[
    .fil2 {fill:#FEFEFE}
    .fil1 {fill:#AE333F}
    .fil3 {fill:#FEFEFE;fill-rule:nonzero}
    .fil4 {fill:#848688;fill-rule:nonzero}
    .fil5 {fill:#606062;fill-rule:nonzero}
    .fil0 {fill:#C73D4B;fill-rule:nonzero}
   ]]>
  </style>
 </defs>
 <g id="Layer_x0020_1">
  <metadata id="CorelCorpID_0Corel-Layer"/>
  <g>
   <path class="fil0" d="M3050.76 2921.34c-9.46,0 -17.13,-9.13 -17.13,-20.4 0,-11.26 7.67,-20.4 17.13,-20.4l0 40.79zm4844.23 0l-4844.23 0 0 -40.79 4844.23 0 0 40.79zm0 -40.79c9.46,0 17.13,9.13 17.13,20.4 0,11.26 -7.67,20.4 -17.13,20.4l0 -40.79z"/>
  </g>
  <path class="fil1" d="M1482.39 3679.44c-122.77,-70.88 -247.53,-138.6 -371.74,-206.92 -101.8,-55.99 -203.6,-112.2 -304.01,-170.65 -83.81,-48.79 -168.75,-99.65 -247.86,-155.78 -60.98,-43.26 -122.14,-87.63 -179.46,-135.7 -45.55,-38.21 -88.13,-78.8 -126.32,-124.45 -38.24,-45.72 -70.7,-94.87 -100.31,-146.53 -97.27,-169.72 -152.7,-374.12 -152.7,-569.93l0 -2067.67 25.39 6.81c68.42,18.33 136.33,38.69 204.2,58.96 67.5,20.16 135.04,40.41 203.09,58.65 60.3,16.15 121.89,31.19 183.6,40.84 44,6.88 88.07,14.15 132.26,19.65 37.39,4.65 75.01,7.9 112.71,7.59 58.45,-0.49 113.28,-9.88 169.22,-26.64 51.6,-15.47 101.21,-40.33 147.73,-67.19 51.76,-29.89 101.57,-63.38 151.22,-96.62 50.41,-33.75 100.95,-67.7 153.5,-98.04l10.09 -5.82 10.09 5.82c52.55,30.34 103.09,64.29 153.5,98.04 49.65,33.25 99.46,66.73 151.22,96.62 46.53,26.86 96.14,51.73 147.73,67.19 55.95,16.76 110.77,26.15 169.22,26.64 37.7,0.31 75.33,-2.94 112.71,-7.59 44.2,-5.5 88.27,-12.77 132.26,-19.65 61.71,-9.65 123.3,-24.69 183.61,-40.84 68.05,-18.24 135.59,-38.48 203.09,-58.65 67.87,-20.27 135.78,-40.63 204.2,-58.96l25.39 -6.81 0 2067.67c0,195.81 -55.42,400.21 -152.7,569.93 -29.6,51.66 -62.07,100.81 -100.31,146.53 -38.18,45.65 -80.76,86.24 -126.32,124.45 -57.31,48.07 -118.47,92.43 -179.46,135.7 -79.11,56.14 -164.05,106.99 -247.86,155.78 -100.41,58.45 -202.21,114.67 -304.01,170.65 -124.22,68.32 -248.98,136.03 -371.74,206.92l-4.68 2.7 -11.92 0 -4.68 -2.7z"/>
  <path class="fil2" d="M1492.5 3581.67l1.06 0c280.54,-161.97 676.42,-363.34 882.12,-509.29 205.71,-145.95 292.09,-224.44 382.93,-382.94 90.84,-158.5 143.53,-350.81 143.53,-535.67l0 -1953.03c-189.11,50.67 -403.97,126.47 -567.34,152.02 -163.37,25.54 -259.61,43.52 -404.79,0 -145.18,-43.51 -291.32,-168.19 -436.98,-252.29 -145.66,84.1 -291.8,208.77 -436.98,252.29 -145.18,43.52 -241.42,25.54 -404.79,0 -163.37,-25.54 -378.23,-101.34 -567.34,-152.02l0 1953.03c0,184.85 52.69,377.17 143.53,535.67 90.84,158.5 177.23,236.98 382.93,382.94 205.71,145.95 601.58,347.32 882.12,509.29z"/>
  <path class="fil1" d="M1493.03 3470.57c102.78,-58.46 206.75,-115.01 310.34,-171.98 96.58,-53.12 193.15,-106.44 288.42,-161.89 77.16,-44.91 155.59,-91.76 228.43,-143.44 154.05,-109.3 260.9,-187.82 355.23,-352.42 83.07,-144.95 130.84,-320.76 130.84,-488.01l0 -1826.22c-23.87,7.04 -47.71,14.18 -71.55,21.29 -124.82,37.28 -256.47,78.5 -385.13,98.62 -165.92,25.94 -281.87,46.64 -447.12,-2.89 -148.08,-44.37 -277.59,-149.03 -409.46,-232.09 -131.87,83.06 -261.38,187.72 -409.46,232.09 -165.25,49.53 -281.2,28.83 -447.12,2.89 -128.66,-20.12 -260.31,-61.34 -385.13,-98.62 -23.83,-7.12 -47.68,-14.25 -71.55,-21.29l0 1826.22c0,167.25 47.77,343.06 130.85,488.01 94.33,164.6 201.18,243.11 355.23,352.42 72.83,51.68 151.28,98.52 228.43,143.44 95.26,55.45 191.84,108.78 288.41,161.89 103.59,56.97 207.55,113.51 310.34,171.98z"/>
  <path class="fil3" d="M705.14 2718.57l0 -2039.88 -90.85 0c-10.04,-6.22 -15.3,-12.43 -15.3,-17.69 0,-4.78 5.26,-10.52 15.3,-16.74l411.71 0c126.24,0 229.52,43.99 310.33,131.5 80.34,87.98 120.5,211.35 120.5,370.1 0,97.07 -13.87,180.75 -41.12,251.52 -27.25,70.29 -69.33,129.58 -127.19,176.93 -35.86,30.12 -90.37,58.33 -163.54,85.59 76.03,28.22 131.98,56.43 167.84,85.59 57.86,47.82 101.37,105.68 131.02,173.1 29.65,67.9 44.47,151.58 44.47,250.57 0,128.15 -22,241.95 -65.51,340.93 -29.65,69.34 -78.9,127.2 -146.8,173.58 -67.9,46.38 -149.19,69.33 -243.87,69.33l-397.84 0c-10.04,-6.21 -15.3,-11.95 -15.3,-17.21 0,-5.26 5.26,-10.99 15.3,-17.21l90.85 0zm286.9 -2037.01l0 961.12 74.6 0c33.95,0 59.3,-8.61 75.55,-25.34 16.74,-16.74 24.87,-44.47 24.87,-83.68l0 -729.21c0,-47.34 -8.61,-79.85 -25.34,-97.07 -17.21,-17.21 -49.73,-25.82 -98.98,-25.82l-50.69 0zm0 998.42l0 1035.72 44.95 0c39.69,0 71.25,-11 94.68,-33.47 23.43,-22.47 35.39,-53.07 35.39,-91.33l0 -814.33c0,-34.43 -6.69,-59.29 -20.56,-74.11 -13.39,-14.82 -34.9,-22.48 -64.08,-22.48l-90.37 0zm654.62 -1001.29l-91.81 0c-9.56,-6.22 -14.35,-11.96 -14.35,-16.74 0,-6.22 4.78,-12.43 13.87,-17.7l798.07 0 0 780.86c-5.26,9.09 -10.52,13.87 -15.78,13.87 -5.26,0 -9.08,-1.44 -11,-4.78 -2.39,-3.34 -3.83,-16.73 -4.78,-40.17 -6.69,-154.45 -31.08,-298.37 -73.16,-431.79 -42.56,-132.93 -83.21,-217.57 -122.42,-252.95 -21.04,-18.65 -55.47,-27.73 -104.24,-27.73l-87.5 0 0 981.21c53.56,-5.74 97.07,-33.47 130.54,-84.15 44.95,-68.38 67.42,-173.1 67.42,-314.64l0 -109.5c0,-4.78 1.44,-8.6 4.78,-11.95 3.35,-3.35 7.18,-4.78 11.48,-4.78 4.78,0 8.61,1.43 11,4.78 2.87,3.35 4.3,7.17 4.3,11.95l0 1045.29c0,4.3 -1.43,8.6 -4.3,11.95 -2.39,3.35 -6.22,4.78 -11,4.78 -4.3,0 -8.13,-1.43 -11.48,-4.78 -3.34,-3.35 -4.78,-7.18 -4.78,-11.95l0 -100.89c0,-138.19 -25.34,-247.7 -76.03,-328.98 -29.65,-46.38 -61.21,-69.81 -93.72,-69.81 -8.61,0 -15.3,2.87 -19.61,8.6 -5.74,6.22 -8.61,16.74 -8.61,30.6l0 976.43 44.95 0c37.78,0 75.55,-14.35 112.85,-42.56 37.3,-28.69 72.2,-77.94 105.2,-148.23 32.52,-70.77 57.38,-147.28 75.07,-230.48 29.17,-133.89 43.51,-239.08 43.51,-314.64l0 -92.29c6.69,-10.04 12.91,-15.3 18.65,-15.3 5.74,0 10.52,1.43 13.86,4.31 3.35,2.87 4.78,6.21 4.78,10.99l0 865.49 -796.64 0c-6.69,0 -11.48,-1.91 -15.3,-5.26 -3.83,-3.34 -5.74,-7.65 -5.74,-11.95 0,-5.26 1.91,-9.56 5.74,-12.43 3.83,-3.35 9.09,-4.78 15.3,-4.78l90.86 0 0 -2039.88z"/>
  <path class="fil4" d="M3648 3284.43c43.09,15.8 64.63,52.66 64.63,110.59l0 22.26c0,39.74 -10.18,69.66 -30.52,89.76 -20.35,20.11 -50.39,30.17 -90.12,30.17l-196.76 0c-10.05,0 -15.08,-5.03 -15.08,-15.08l0 -424.39c0,-10.06 5.03,-15.08 15.08,-15.08l187.42 0c33.99,0 59.72,8.5 77.2,25.5 17.48,16.99 26.21,42.24 26.21,75.75l0 19.39c0,39.74 -12.69,66.79 -38.06,81.14zm-237.69 -8.62l181.68 0 1.44 0 4.31 -0.72c20.11,-1.43 34.83,-8.02 44.16,-19.75 9.34,-11.72 14,-29.08 14,-52.06l0 -19.39c0,-24.89 -5.86,-42.96 -17.59,-54.21 -11.73,-11.25 -30.28,-16.88 -55.65,-16.88l-172.34 0 0 163.01zm272.16 119.21c0,-31.12 -7.18,-53.74 -21.54,-67.87 -14.36,-14.12 -37.34,-21.18 -68.94,-21.18l-181.68 0 0 201.06 181.68 0c31.6,0 54.58,-7.18 68.94,-21.54 14.36,-14.37 21.54,-37.1 21.54,-68.22l0 -22.26zm101.71 -12.21l0 29.45c0,34.95 7.18,59.48 21.55,73.6 14.36,14.12 39.02,21.18 73.96,21.18l58.88 0c32.55,0 56.01,-4.42 70.37,-13.28 14.36,-8.86 22.5,-24.06 24.42,-45.6 0.96,-10.05 6.23,-15.08 15.8,-15.08 4.79,0 8.5,1.43 11.13,4.31 2.63,2.87 3.71,6.69 3.23,11.49 -2.39,30.64 -13.76,53.02 -34.11,67.14 -20.35,14.13 -50.63,21.19 -90.84,21.19l-58.88 0c-43.56,0 -75.4,-9.94 -95.51,-29.81 -20.1,-19.87 -30.16,-51.58 -30.16,-95.14l0 -80.43c0,-44.04 10.05,-76.12 30.16,-96.22 20.11,-20.1 51.94,-29.92 95.51,-29.44l58.88 0c44.04,0 76,9.93 95.86,29.8 19.87,19.87 29.8,51.83 29.8,95.87l0 35.91c0,10.05 -5.03,15.08 -15.08,15.08l-264.98 0zm0 -30.16l249.9 0 0 -20.82c0,-35.42 -7.06,-60.2 -21.18,-74.33 -14.12,-14.12 -38.9,-21.18 -74.32,-21.18l-58.88 0c-34.95,-0.48 -59.6,6.47 -73.96,20.83 -14.36,14.36 -21.55,39.26 -21.55,74.68l0 20.82zm467.95 183.84c-43.56,0 -75.28,-9.94 -95.15,-29.81 -19.87,-19.86 -29.8,-51.34 -29.8,-94.42 0,-4.31 1.44,-7.9 4.31,-10.78 2.87,-2.87 6.46,-4.31 10.77,-4.31 4.31,0 7.9,1.43 10.77,4.31 2.87,2.88 4.31,6.46 4.31,10.78 0,34.95 7.06,59.36 21.19,73.25 14.12,13.88 38.66,20.82 73.6,20.82l103.41 0c34.95,0 59.48,-6.94 73.6,-20.82 14.12,-13.89 21.18,-38.3 21.18,-73.25 0,-34.95 -7.06,-59.37 -21.18,-73.25 -14.12,-13.89 -38.66,-20.83 -73.6,-20.83l-101.25 0c-41.17,0 -71.21,-9.34 -90.12,-28 -18.91,-18.67 -28.37,-48.59 -28.37,-89.76 0,-41.17 9.45,-71.09 28.37,-89.76 18.91,-18.67 48.71,-28.01 89.4,-28.01l105.56 0c40.69,0 70.49,9.34 89.4,28.01 18.91,18.67 28.37,48.35 28.37,89.04 0,4.31 -1.44,7.9 -4.31,10.77 -2.87,2.88 -6.46,4.31 -10.77,4.31 -4.31,0 -7.9,-1.44 -10.77,-4.31 -2.87,-2.87 -4.31,-6.46 -4.31,-10.77 0,-32.08 -6.58,-54.57 -19.75,-67.51 -13.16,-12.92 -35.78,-19.39 -67.86,-19.39l-105.56 0c-32.08,0 -54.7,6.47 -67.86,19.39 -13.16,12.93 -19.75,35.67 -19.75,68.22 0,32.55 6.58,55.29 19.75,68.22 13.16,12.92 36.02,19.39 68.58,19.39l101.25 0c43.56,0 75.28,9.93 95.15,29.8 19.87,19.87 29.8,51.35 29.8,94.44 0,43.09 -9.93,74.56 -29.8,94.42 -19.87,19.87 -51.58,29.81 -95.15,29.81l-103.41 0zm460.05 -330.33c44.04,0 76,9.93 95.86,29.8 19.87,19.87 29.8,51.83 29.8,95.87l0 190.3c0,10.05 -5.03,15.08 -15.08,15.08 -10.05,0 -15.08,-5.03 -15.08,-15.08l0 -42.37c-11.01,18.67 -27.17,32.92 -48.47,42.73 -21.3,9.81 -47.51,14.72 -78.63,14.72l-40.21 0c-36.38,0 -62.84,-8.26 -79.35,-24.77 -16.52,-16.52 -24.77,-42.97 -24.77,-79.35 0,-36.38 8.38,-62.95 25.13,-79.71 16.76,-16.76 43.09,-25.13 78.99,-25.13l167.31 0c-0.48,-33.51 -7.9,-57.21 -22.26,-71.09 -14.36,-13.88 -38.78,-20.83 -73.25,-20.83l-41.65 0c-32.55,0 -56.25,3.71 -71.09,11.13 -14.84,7.42 -23.7,20.23 -26.57,38.42 -1.44,9.58 -6.47,14.36 -15.08,14.36 -5.27,0 -9.21,-1.44 -11.85,-4.31 -2.63,-2.88 -3.71,-6.7 -3.23,-11.5 1.91,-26.81 13.41,-46.56 34.47,-59.24 21.06,-12.69 52.18,-19.03 93.35,-19.03l41.65 0zm95.51 217.58l0 -65.35 -167.31 0c-27.77,0 -47.04,5.5 -57.81,16.51 -10.77,11.02 -16.16,30.4 -16.16,58.17 0,27.76 5.39,47.03 16.16,57.8 10.77,10.78 30.04,16.16 57.81,16.16l40.21 0c77.55,0 119.68,-26.33 126.38,-78.99l0.72 -4.31zm228.82 -217.58c10.05,0 15.08,5.02 15.08,15.08 0,10.06 -5.03,15.08 -15.08,15.08l-94.07 0 0 285.81c0,10.05 -5.03,15.08 -15.08,15.08 -10.05,0 -15.08,-5.03 -15.08,-15.08l0 -285.81 -31.6 0c-10.05,0 -15.08,-5.02 -15.08,-15.08 0,-10.05 5.03,-15.08 15.08,-15.08l31.6 0 0 -40.94c0,-43.09 9.81,-74.44 29.44,-94.07 19.63,-19.63 50.98,-29.44 94.07,-29.44 10.53,0 15.8,5.03 15.8,15.08 0,10.05 -5.27,15.08 -15.8,15.08 -34.47,0 -58.64,6.94 -72.53,20.82 -13.88,13.89 -20.83,38.06 -20.83,72.53l0 40.94 94.07 0zm43.55 176.65l0 29.45c0,34.95 7.18,59.48 21.55,73.6 14.36,14.12 39.01,21.18 73.96,21.18l58.88 0c32.55,0 56.01,-4.42 70.38,-13.28 14.36,-8.86 22.5,-24.06 24.42,-45.6 0.96,-10.05 6.23,-15.08 15.8,-15.08 4.79,0 8.5,1.43 11.13,4.31 2.63,2.87 3.71,6.69 3.23,11.49 -2.39,30.64 -13.76,53.02 -34.11,67.14 -20.35,14.13 -50.63,21.19 -90.84,21.19l-58.88 0c-43.57,0 -75.4,-9.94 -95.51,-29.81 -20.11,-19.87 -30.16,-51.58 -30.16,-95.14l0 -80.43c0,-44.04 10.05,-76.12 30.16,-96.22 20.11,-20.1 51.94,-29.92 95.51,-29.44l58.88 0c44.05,0 76,9.93 95.87,29.8 19.87,19.87 29.8,51.83 29.8,95.87l0 35.91c0,10.05 -5.03,15.08 -15.08,15.08l-264.98 0zm0 -30.16l249.9 0 0 -20.82c0,-35.42 -7.06,-60.2 -21.19,-74.33 -14.12,-14.12 -38.89,-21.18 -74.32,-21.18l-58.88 0c-34.95,-0.48 -59.6,6.47 -73.96,20.83 -14.36,14.36 -21.55,39.26 -21.55,74.68l0 20.82zm653.93 184.56c-50.74,0 -87.72,-11.61 -110.94,-34.83 -23.22,-23.22 -34.83,-60.2 -34.83,-110.95l0 -163.01c0,-51.23 11.49,-88.33 34.47,-111.3 22.98,-22.98 59.84,-34.47 110.58,-34.47l86.89 0c44.04,0 76.36,9.1 96.94,27.29 20.59,18.19 31.84,47.63 33.75,88.33l0 2.15c0,9.09 -4.78,13.65 -14.36,13.65 -9.58,0 -14.84,-5.03 -15.8,-15.08 -1.44,-32.08 -9.7,-54.46 -24.77,-67.15 -15.08,-12.69 -40.34,-19.03 -75.76,-19.03l-86.89 0c-28.72,0 -51.34,3.71 -67.86,11.13 -16.52,7.42 -28.49,19.52 -35.91,36.27 -7.42,16.75 -11.13,39.49 -11.13,68.22l0 163.01c0,42.13 8.74,71.93 26.21,89.4 17.48,17.48 47.28,26.21 89.4,26.21l86.17 0c25.85,0 46.08,-3.11 60.68,-9.34 14.6,-6.22 25.01,-16.63 31.24,-31.23 6.22,-14.61 9.34,-34.83 9.34,-60.68l0 -48.83 -86.17 -0.72c-10.05,0 -15.08,-5.03 -15.08,-15.08 0,-10.05 5.03,-15.08 15.08,-15.08l101.25 0.72c10.05,0 15.08,5.03 15.08,15.08l0 63.91c0,46.43 -10.29,79.95 -30.88,100.53 -20.59,20.59 -54.1,30.89 -100.53,30.89l-86.17 0zm597.93 -20.11c2.39,3.83 3.59,6.94 3.59,9.34 0,4.79 -2.63,8.62 -7.9,11.49 -3.35,1.92 -6.46,2.87 -9.34,2.87 -4.79,0 -8.62,-2.39 -11.49,-7.18l-119.92 -188.14 -142.18 0 0 176.65c0,10.05 -5.03,15.08 -15.08,15.08 -10.05,0 -15.08,-5.03 -15.08,-15.08l0 -424.39c0,-10.06 5.03,-15.08 15.08,-15.08l168.04 0c39.74,0 69.78,10.17 90.12,30.52 20.35,20.35 30.52,50.39 30.52,90.12l0 21.55c0,71.33 -32.07,111.07 -96.22,119.2l109.87 173.06zm-287.24 -201.78l152.96 0c31.12,0 53.97,-7.3 68.58,-21.9 14.6,-14.6 21.9,-37.46 21.9,-68.58l0 -21.55c0,-31.11 -7.3,-53.98 -21.9,-68.58 -14.6,-14.61 -37.46,-21.9 -68.58,-21.9l-152.96 0 0 202.51zm474.41 221.9c-50.74,0 -87.73,-11.61 -110.94,-34.83 -23.22,-23.22 -34.83,-60.2 -34.83,-110.95l0 -163.01c0,-51.23 11.49,-88.45 34.47,-111.66 22.98,-23.23 59.84,-34.59 110.58,-34.11l86.89 0c51.22,0 88.32,11.49 111.3,34.47 22.98,22.97 34.47,60.08 34.47,111.3l0 163.01c0,50.75 -11.49,87.73 -34.47,110.95 -22.98,23.22 -60.08,34.83 -111.3,34.83l-86.17 0zm86.17 -30.17c42.61,0 72.53,-8.74 89.76,-26.21 17.23,-17.47 25.85,-47.27 25.85,-89.4l0 -163.01c0,-42.61 -8.62,-72.53 -25.85,-89.76 -17.23,-17.23 -47.16,-25.85 -89.76,-25.85l-86.89 0c-42.13,-0.48 -71.81,8.02 -89.04,25.49 -17.23,17.48 -25.85,47.51 -25.85,90.12l0 163.01c0,42.13 8.74,71.93 26.21,89.4 17.48,17.48 47.28,26.21 89.4,26.21l86.17 0zm354.48 30.17c-50.74,0 -87.72,-11.61 -110.94,-34.83 -23.22,-23.22 -34.83,-60.2 -34.83,-110.95l0 -293.7c0,-4.31 1.44,-7.9 4.31,-10.78 2.87,-2.87 6.46,-4.31 10.77,-4.31 4.31,0 7.9,1.44 10.77,4.31 2.87,2.88 4.31,6.46 4.31,10.78l0 293.7c0,42.13 8.74,71.93 26.21,89.4 17.48,17.48 47.28,26.21 89.4,26.21l86.17 0c42.61,0 72.53,-8.74 89.76,-26.21 17.23,-17.47 25.85,-47.27 25.85,-89.4l0 -293.7c0,-4.31 1.44,-7.9 4.31,-10.78 2.87,-2.87 6.47,-4.31 10.77,-4.31 4.31,0 7.9,1.44 10.77,4.31 2.87,2.88 4.31,6.46 4.31,10.78l0 293.7c0,50.75 -11.49,87.73 -34.47,110.95 -22.98,23.22 -60.08,34.83 -111.31,34.83l-86.17 0zm485.18 -454.56c39.74,0 69.78,10.17 90.12,30.52 20.35,20.35 30.52,50.39 30.52,90.12l0 21.55c0,39.74 -10.17,69.78 -30.52,90.12 -20.35,20.35 -50.39,30.52 -90.12,30.52l-152.95 0 0 176.65c0,10.05 -5.03,15.08 -15.08,15.08 -10.05,0 -15.08,-5.03 -15.08,-15.08l0 -424.39c0,-10.06 5.03,-15.08 15.08,-15.08l168.03 0zm90.48 120.64c0,-31.11 -7.3,-53.98 -21.9,-68.58 -14.6,-14.61 -37.46,-21.9 -68.58,-21.9l-152.95 0 0 202.51 152.95 0c31.12,0 53.98,-7.3 68.58,-21.9 14.6,-14.6 21.9,-37.46 21.9,-68.58l0 -21.55z"/>
  <path class="fil5" d="M3221.86 2631.59c-31.94,22.4 -64.35,50.05 -97.71,82.94 -32.89,32.89 -53.38,49.57 -60.53,49.57 -2.86,0 -5.25,-1.43 -7.15,-4.29 -1.91,-2.86 -2.86,-8.58 -2.86,-18.11l0 -877.48c0,-3.34 1.43,-6.68 3.81,-9.06 2.38,-2.38 4.76,-3.34 7.63,-3.34 4.76,0 9.06,2.86 12.87,8.59 6.67,8.1 10.01,17.63 10.01,27.64l0 60.05c0,116.78 18.11,249.28 54.81,398.47 36.23,149.19 84.37,255 142.99,318.39 29.08,31.93 62.92,47.66 101.05,47.66 44.33,0 82.46,-20.49 115.35,-61.96 32.89,-41.47 49.09,-104.39 49.09,-188.28 0,-80.07 -14.78,-164.92 -44.8,-254.04 -39.08,-119.64 -126.31,-310.77 -260.72,-573.87 -84.37,-163.96 -137.75,-282.64 -160.63,-355.57 -22.88,-73.4 -34.32,-144.43 -34.32,-213.54 0,-136.8 32.41,-244.03 97.23,-321.25 64.83,-77.69 138.7,-116.3 221.64,-116.3 70.55,0 134.41,37.65 191.13,113.44 46.71,-25.26 91.99,-56.72 135.84,-93.9 14.78,-12.87 24.79,-19.54 29.07,-19.54 1.91,0 3.81,0.96 5.72,2.86 1.91,3.81 2.86,10.01 2.86,19.54l0 758.8c0,10.49 -2.38,19.07 -7.15,25.27 -2.38,3.81 -6.2,5.72 -10.97,5.72 -5.72,0 -10.01,-2.38 -12.39,-7.14 -2.86,-4.29 -8.58,-38.14 -16.68,-100.57 -38.13,-290.27 -89.13,-482.83 -152.05,-576.73 -37.65,-52.91 -79.6,-79.12 -127.26,-79.12 -35.27,0 -65.78,15.73 -91.99,47.67 -26.22,31.46 -39.08,78.16 -39.08,139.18 0,111.06 63.39,293.13 189.7,546.22l122.97 247.85c84.84,170.16 141.08,305.52 168.73,405.14 28.12,100.09 41.94,189.7 41.94,268.82 0,137.75 -33.84,245.94 -102,324.11 -68.16,78.17 -148.23,117.26 -239.75,117.26 -99.14,0 -177.79,-47.19 -236.41,-141.09zm927.99 -1949.44l148.23 0 246.9 2036.19 62.92 0c10.01,6.19 15.25,11.92 15.25,17.16 0,5.24 -5.24,10.96 -15.25,17.16l-418.01 0c-4.76,0 -8.1,-1.43 -10.96,-4.76 -2.86,-2.86 -4.29,-7.15 -4.29,-12.39 0,-5.24 1.43,-9.54 4.29,-12.4 2.86,-3.34 6.67,-4.76 10.96,-4.76l67.68 0 -38.61 -397.51 -255 0 -29.55 223.54c-0.48,11.91 -0.95,24.31 -0.95,37.18 0,40.51 7.63,71.02 23.83,91.99 15.73,20.49 37.66,33.37 65.3,37.65l23.35 7.15c3.81,3.81 5.72,9.05 5.72,14.78 0,6.19 -1.43,10.96 -4.76,14.3 -3.34,3.33 -7.63,5.24 -11.92,5.24l-240.22 0c-4.29,0 -8.58,-1.91 -11.91,-5.24 -2.86,-3.34 -4.77,-8.11 -4.77,-14.3 0,-5.73 1.43,-10.97 4.29,-14.78l16.68 -5.72c27.17,-3.34 48.14,-15.25 62.91,-35.74 22.4,-32.41 38.13,-85.79 47.66,-160.15l240.23 -1834.57zm-39.56 520.48l-141.56 1081.01 246.42 0 -104.86 -1081.01zm605.31 -517.62l-90.09 0c-10.48,-6.2 -15.73,-11.92 -15.73,-16.68 0,-6.2 5.24,-12.4 15.25,-17.64l774.06 0 0 776.91c0,4.29 -1.43,8.1 -3.81,10.96 -2.86,2.86 -6.2,4.29 -10.48,4.29 -5.25,0 -9.53,-1.91 -11.92,-5.72 -2.86,-3.33 -4.29,-18.11 -5.24,-42.9 -4.77,-115.34 -24.31,-238.79 -59.11,-369.87 -34.32,-131.55 -67.2,-220.68 -98.19,-268.34 -15.73,-23.83 -34.79,-41.47 -57.2,-51.96 -22.4,-10.97 -57.2,-16.2 -103.91,-16.2l-47.67 0 0 980.91c44.33,-3.81 81.51,-30.03 112.49,-79.6 47.19,-75.31 70.54,-192.08 70.54,-350.32l0 -76.74c0,-5.72 1.43,-9.53 4.29,-12.39 2.86,-2.86 6.67,-4.29 11.44,-4.29 4.76,0 8.58,1.43 11.44,4.76 2.86,3.34 4.29,7.15 4.29,11.92l0 1047.64c0,5.72 -1.43,9.54 -4.29,12.4 -2.86,2.85 -6.68,4.28 -11.44,4.28l-10.01 -4.28c-3.81,-3.81 -5.72,-7.63 -5.72,-12.4l0 -124.4c0,-134.89 -22.88,-237.37 -69.11,-308.38 -30.03,-45.29 -67.68,-69.11 -113.92,-71.02l0 1012.37 90.09 0c4.76,0 8.58,1.43 11.44,4.76 2.86,2.86 4.29,7.15 4.29,12.4 0,5.24 -1.43,9.53 -4.29,12.39 -2.86,3.34 -6.2,4.76 -10.96,4.76l-461.39 0c-6.67,0 -11.44,-1.91 -15.25,-5.24 -3.81,-3.34 -5.72,-7.63 -5.72,-11.92 0,-5.24 1.91,-9.54 5.72,-12.4 3.34,-3.34 8.58,-4.76 14.78,-4.76l85.32 0 0 -2033.32zm798.34 0l-91.51 0c-9.53,-6.2 -14.3,-11.92 -14.3,-16.68 0,-6.2 4.77,-12.4 13.82,-17.64l795.5 0 0 778.34c-5.25,9.06 -10.49,13.82 -15.73,13.82 -5.24,0 -9.06,-1.43 -10.96,-4.77 -2.38,-3.34 -3.81,-16.68 -4.76,-40.04 -6.68,-153.95 -30.98,-297.42 -72.93,-430.4 -42.42,-132.5 -82.94,-216.87 -122.02,-252.13 -20.97,-18.59 -55.29,-27.64 -103.91,-27.64l-87.22 0 0 978.05c53.38,-5.72 96.76,-33.37 130.12,-83.89 44.8,-68.16 67.21,-172.54 67.21,-313.62l0 -109.15c0,-4.77 1.43,-8.59 4.76,-11.92 3.34,-3.33 7.15,-4.76 11.44,-4.76 4.76,0 8.58,1.43 10.96,4.76 2.86,3.34 4.29,7.15 4.29,11.92l0 1041.92c0,4.29 -1.43,8.58 -4.29,11.92 -2.38,3.34 -6.2,4.77 -10.96,4.77 -4.29,0 -8.1,-1.43 -11.44,-4.77 -3.34,-3.34 -4.76,-7.14 -4.76,-11.92l0 -100.57c0,-137.75 -25.26,-246.9 -75.78,-327.93 -29.55,-46.23 -61.01,-69.59 -93.42,-69.59 -8.58,0 -15.25,2.87 -19.54,8.59 -5.72,6.19 -8.58,16.68 -8.58,30.5l0 973.29 44.8 0c37.65,0 75.31,-14.3 112.48,-42.42 37.18,-28.6 71.97,-77.69 104.86,-147.75 32.41,-70.54 57.2,-146.81 74.83,-229.74 29.07,-133.46 43.37,-238.31 43.37,-313.62l0 -91.99c6.67,-10.01 12.87,-15.25 18.59,-15.25 5.72,0 10.48,1.43 13.82,4.29 3.34,2.86 4.77,6.2 4.77,10.97l0 862.71 -794.08 0c-6.68,0 -11.44,-1.91 -15.25,-5.24 -3.81,-3.34 -5.72,-7.63 -5.72,-11.92 0,-5.24 1.91,-9.54 5.72,-12.4 3.81,-3.34 9.06,-4.76 15.25,-4.76l90.56 0 0 -2033.32z"/>
  <path class="fil5" d="M6838.7 1274.56l105.91 0 176.42 1454.89 44.95 0c7.15,4.43 10.9,8.52 10.9,12.26 0,3.75 -3.75,7.83 -10.9,12.26l-298.68 0c-3.4,0 -5.79,-1.02 -7.83,-3.4 -2.04,-2.05 -3.07,-5.11 -3.07,-8.85 0,-3.75 1.02,-6.82 3.07,-8.85 2.04,-2.39 4.77,-3.41 7.83,-3.41l48.36 0 -27.59 -284.03 -182.2 0 -21.12 159.73c-0.34,8.52 -0.68,17.37 -0.68,26.57 0,28.95 5.45,50.74 17.03,65.73 11.24,14.65 26.91,23.84 46.66,26.91l16.69 5.11c2.72,2.72 4.09,6.47 4.09,10.56 0,4.43 -1.02,7.84 -3.41,10.22 -2.38,2.38 -5.45,3.75 -8.51,3.75l-171.64 0c-3.07,0 -6.13,-1.36 -8.51,-3.75 -2.04,-2.38 -3.41,-5.79 -3.41,-10.22 0,-4.09 1.02,-7.83 3.07,-10.56l11.92 -4.09c19.41,-2.38 34.4,-10.9 44.96,-25.54 16,-23.16 27.24,-61.3 34.05,-114.43l171.64 -1310.84zm-28.27 371.9l-101.15 772.4 176.07 0 -74.93 -772.4zm368.32 -369.86l-59.26 0c-3.4,0 -6.47,-1.02 -8.85,-3.4 -2.38,-2.38 -3.4,-5.11 -3.4,-8.52 0,-3.75 1.02,-6.81 3.4,-9.19 2.38,-2.39 5.11,-3.41 8.51,-3.41l270.07 0 97.06 922.26 121.92 -922.26 273.13 0c3.75,0 7.15,1.03 9.88,3.41 2.72,2.38 3.75,5.11 3.75,8.51 0,3.75 -1.02,6.82 -3.75,9.2 -2.72,2.38 -6.13,3.4 -9.88,3.4l-65.05 0 0 1452.85 64.71 0c1.71,0 3.07,0.68 3.75,2.05 2.04,3.06 3.07,6.81 3.07,11.23 0,3.75 -0.68,6.48 -2.04,8.52 -1.36,1.71 -3.06,2.72 -4.77,2.72l-327.62 0c-2.73,0 -5.11,-1.02 -7.49,-3.4 -2.38,-2.05 -3.41,-5.11 -3.41,-8.85 0,-3.75 1.02,-6.82 3.41,-8.85 2.38,-2.39 4.76,-3.41 7.49,-3.41l68.79 0 0 -1386.44 -176.07 1376.23c-2.72,17.71 -5.11,27.92 -7.15,30.65 -2.04,2.72 -5.11,4.09 -8.85,4.09l-66.07 0c-4.09,0 -7.15,-1.36 -9.19,-4.09 -2.04,-2.73 -4.09,-12.94 -6.13,-30.99l-143.38 -1361.92 0 1265.21c0,34.73 3.41,58.91 10.56,72.87 6.81,13.97 18.73,24.18 36.1,30.31l44.27 4.09c3.4,2.05 5.11,5.79 5.11,11.93 0,5.11 -0.68,8.51 -2.38,10.22 -1.71,1.7 -5.79,2.38 -12.26,2.38l-174.71 0c-2.72,0 -4.76,-1.02 -6.47,-2.72 -1.7,-1.7 -2.38,-4.09 -2.38,-7.15 0,-3.07 0.68,-5.46 2.38,-6.82 1.71,-1.7 7.49,-4.09 17.37,-7.83 20.09,-8.17 34.05,-18.39 41.21,-30.99 9.88,-17.37 14.65,-41.89 14.65,-74.24l0 -1347.62z"/>
  <path class="fil1" d="M6431.88 2393.56c99.26,0 179.72,80.47 179.72,179.72 0,99.26 -80.47,179.72 -179.72,179.72 -99.26,0 -179.72,-80.47 -179.72,-179.72 0,-99.25 80.47,-179.72 179.72,-179.72z"/>
 </g>
</svg>
