<svg id="Capa_1" enable-background="new 0 0 512 512" height="512" viewBox="0 0 512 512" width="512" xmlns="http://www.w3.org/2000/svg"><g><path d="m399.625 210.749c-8.34 0-15.125 6.785-15.125 15.125v60.253c0 8.34 6.785 15.125 15.125 15.125s15.125-6.785 15.125-15.125v-60.253c0-8.34-6.785-15.125-15.125-15.125z"/><path d="m256 0c-141.385 0-256 114.615-256 256s114.615 256 256 256 256-114.615 256-256-114.615-256-256-256zm-45.125 60.25h90.25v30h-90.25zm-60.25 60.25h210.75v30h-210.75zm138.5 180.751c8.34 0 15.125-6.785 15.125-15.125v-15.126h-15.125v-30h45.125v45.126c0 24.882-20.243 45.125-45.125 45.125s-45.125-20.243-45.125-45.125v-60.253c0-24.882 20.243-45.125 45.125-45.125s45.125 20.243 45.125 45.125h-30c0-8.34-6.785-15.125-15.125-15.125s-15.125 6.786-15.125 15.126v60.253c0 8.339 6.785 15.124 15.125 15.124zm-161.75 30h-60.125v-150.5h30v120.5h30.125zm6.125-45.125v-60.253c0-24.882 20.243-45.125 45.125-45.125s45.125 20.243 45.125 45.125v60.253c0 24.882-20.243 45.125-45.125 45.125s-45.125-20.243-45.125-45.125zm167.625 165.624h-90.25v-30h90.25zm60.25-60.253h-210.75v-30h210.75zm38.25-60.246c-24.882 0-45.125-20.243-45.125-45.125v-60.253c0-24.882 20.243-45.125 45.125-45.125s45.125 20.243 45.125 45.125v60.253c0 24.882-20.243 45.125-45.125 45.125z"/><path d="m193.75 286.126v-60.253c0-8.34-6.785-15.125-15.125-15.125s-15.125 6.785-15.125 15.125v60.253c0 8.34 6.785 15.125 15.125 15.125s15.125-6.785 15.125-15.125z"/></g></svg>