<svg width="22" height="32" viewBox="0 0 22 32" fill="none" xmlns="http://www.w3.org/2000/svg">
<path d="M19.2443 3.51478H18.9729V1.71385C18.9729 1.1891 18.7375 0.700658 18.327 0.373721C17.9165 0.0467831 17.3877 -0.0734044 16.8764 0.0439706L1.65727 3.53603C1.65615 3.53628 1.65509 3.53666 1.65396 3.53697C1.02952 3.64903 0.553711 4.19516 0.553711 4.85135V15.1997C0.553711 15.4591 0.763961 15.6694 1.0234 15.6694C1.28284 15.6694 1.49309 15.4591 1.49309 15.1997V4.85135C1.49309 4.63235 1.67127 4.4541 1.89034 4.4541H13.2936C13.553 4.4541 13.7633 4.24378 13.7633 3.98441C13.7633 3.72503 13.553 3.51472 13.2936 3.51472H5.95015L17.0865 0.959471C17.3176 0.906408 17.5565 0.960783 17.7418 1.10847C17.9272 1.25616 18.0335 1.47685 18.0335 1.71385V3.51472H12.1096C11.8502 3.51472 11.64 3.72503 11.64 3.98441C11.64 4.24378 11.8502 4.4541 12.1096 4.4541H19.2443C19.9413 4.4541 20.5083 5.02116 20.5083 5.71822V27.0057C20.5083 27.265 20.7186 27.4753 20.978 27.4753C21.2375 27.4753 21.4477 27.265 21.4477 27.0057V5.71822C21.4477 4.50322 20.4593 3.51478 19.2443 3.51478Z" fill="#C9849D"/>
<path d="M20.9771 26.5396C20.7177 26.5396 20.5074 26.7499 20.5074 27.0093V29.7965C20.5074 30.4935 19.9404 31.0606 19.2434 31.0606H1.88936C1.67036 31.0606 1.49211 30.8824 1.49211 30.6633V14.5158C1.49211 14.2565 1.2818 14.0461 1.02242 14.0461C0.763047 14.0461 0.552734 14.2565 0.552734 14.5158V30.6633C0.552734 31.4003 1.1523 31.9999 1.8893 31.9999H19.2433C20.4582 31.9999 21.4467 31.0115 21.4467 29.7965V27.0093C21.4468 26.7498 21.2365 26.5396 20.9771 26.5396Z" fill="#C9849D"/>
<path d="M10.9816 20.8993C14.269 20.8993 16.9437 18.2247 16.9437 14.9372C16.9437 11.6497 14.269 8.9751 10.9816 8.9751C7.69409 8.9751 5.01953 11.6497 5.01953 14.9372C5.01953 18.2247 7.69409 20.8993 10.9816 20.8993ZM10.9816 19.96C10.5127 19.96 9.89428 18.9826 9.57141 17.3284H12.3918C12.0688 18.9826 11.4505 19.96 10.9816 19.96ZM12.575 19.6994C12.6933 19.4882 12.8033 19.251 12.9037 18.9885C13.091 18.498 13.24 17.9363 13.3477 17.3284H15.3978C14.7953 18.4365 13.7873 19.2927 12.575 19.6994ZM16.0043 14.9372C16.0043 15.442 15.9287 15.9292 15.7895 16.3891H13.477C13.5242 15.92 13.5488 15.4333 13.5488 14.9372C13.5488 14.4889 13.5285 14.0484 13.4898 13.6214H15.8283C15.9423 14.0411 16.0043 14.4819 16.0043 14.9372ZM15.4675 12.6821H13.3708C13.2618 12.0219 13.1048 11.4128 12.9036 10.8859C12.8033 10.6233 12.6933 10.3861 12.575 10.175C13.8362 10.5982 14.8752 11.5085 15.4675 12.6821ZM10.9816 9.91441C11.4632 9.91441 12.1027 10.9453 12.4175 12.682H9.54559C9.86047 10.9453 10.5 9.91441 10.9816 9.91441ZM12.547 13.6214C12.587 14.0327 12.6095 14.4719 12.6095 14.9372C12.6095 15.4544 12.5816 15.9391 12.5328 16.3891H9.43047C9.38166 15.9391 9.35372 15.4544 9.35372 14.9372C9.35372 14.4719 9.37622 14.0327 9.41622 13.6214H12.547ZM9.38822 10.175C9.26991 10.3862 9.15991 10.6233 9.05959 10.8859C8.85841 11.4128 8.70134 12.0219 8.59234 12.6821H6.49566C7.08809 11.5085 8.12697 10.5982 9.38822 10.175ZM5.95884 14.9372C5.95884 14.4819 6.02084 14.0411 6.13491 13.6214H8.47334C8.43472 14.0484 8.41434 14.4889 8.41434 14.9372C8.41434 15.4333 8.43909 15.92 8.48622 16.3891H6.17359C6.03447 15.9292 5.95884 15.4419 5.95884 14.9372ZM8.61553 17.3284C8.72322 17.9363 8.87228 18.498 9.05959 18.9885C9.15991 19.251 9.26984 19.4883 9.38822 19.6994C8.17591 19.2926 7.16791 18.4365 6.56547 17.3284H8.61553Z" fill="#C9849D"/>
<path d="M5.48922 23.8132H16.5111C16.7705 23.8132 16.9808 23.6028 16.9808 23.3435C16.9808 23.0841 16.7705 22.8738 16.5111 22.8738H5.48922C5.22984 22.8738 5.01953 23.0841 5.01953 23.3435C5.01953 23.6028 5.22978 23.8132 5.48922 23.8132Z" fill="#C9849D"/>
<path d="M7.5693 25.6003C7.30992 25.6003 7.09961 25.8106 7.09961 26.07C7.09961 26.3295 7.30992 26.5397 7.5693 26.5397H14.4301C14.6895 26.5397 14.8998 26.3295 14.8998 26.07C14.8998 25.8106 14.6895 25.6003 14.4301 25.6003H7.5693Z" fill="#C9849D"/>
</svg>
