<svg width="24" height="32" viewBox="0 0 24 32" fill="none" xmlns="http://www.w3.org/2000/svg">
<path d="M10.4245 22.1446L10.0039 25.9264C9.98313 26.1146 10.0436 26.3034 10.1699 26.4447C10.2963 26.5859 10.4773 26.6667 10.6667 26.6667H13.3334C13.5228 26.6667 13.7038 26.5859 13.8301 26.4447C13.9565 26.3034 14.017 26.1146 13.9961 25.9264L13.5756 22.1446C14.2585 21.6478 14.6667 20.862 14.6667 20C14.6667 18.5293 13.4708 17.3333 12 17.3333C10.5293 17.3333 9.33331 18.5293 9.33331 20C9.33331 20.862 9.74156 21.6478 10.4245 22.1446ZM12 18.6667C12.735 18.6667 13.3333 19.265 13.3333 20C13.3333 20.5111 13.0429 20.9688 12.5755 21.1953C12.3209 21.319 12.1719 21.5886 12.2031 21.8691L12.5886 25.3333H11.4115L11.7969 21.8691C11.8282 21.5885 11.6791 21.319 11.4246 21.1953C10.9571 20.9688 10.6668 20.5111 10.6668 20C10.6667 19.265 11.265 18.6667 12 18.6667Z" fill="#C4C4C4"/>
<path d="M23.3333 12H21.3333V9.33331C21.3333 4.18687 17.1465 0 12 0C6.8535 0 2.66669 4.18687 2.66669 9.33331V12H0.666687C0.298187 12 0 12.2982 0 12.6667V29.3334C0 30.8041 1.19594 32 2.66669 32H21.3334C22.8041 32 24 30.8041 24 29.3333V12.6667C24 12.2982 23.7018 12 23.3333 12ZM4 9.33331C4 4.92187 7.58856 1.33331 12 1.33331C16.4114 1.33331 20 4.92187 20 9.33331V12H18.6667V9.33331C18.6667 5.6575 15.6758 2.66663 12 2.66663C8.32419 2.66663 5.33331 5.65756 5.33331 9.33331V12H4V9.33331ZM17.3333 9.33331V12H6.66669V9.33331C6.66669 6.39256 9.05925 4 12 4C14.9408 4 17.3333 6.39256 17.3333 9.33331ZM22.6667 29.3333C22.6667 30.0683 22.0684 30.6666 21.3334 30.6666H2.66669C1.93169 30.6666 1.33337 30.0683 1.33337 29.3333V13.3333H22.6667V29.3333Z" fill="#C4C4C4"/>
</svg>
