<svg width="128" height="128" viewBox="0 0 128 128" fill="none" xmlns="http://www.w3.org/2000/svg">
<path d="M63.16 63.7625C79.7013 63.7625 93.1091 50.3539 93.1091 33.8134C93.1091 17.2737 79.7013 3.86426 63.16 3.86426C46.6203 3.86426 33.2109 17.2737 33.2109 33.8134C33.2236 50.3483 46.6251 63.7498 63.16 63.7625ZM63.16 8.94026C76.8976 8.94026 88.0331 20.0758 88.0331 33.8134C88.0331 47.5509 76.8976 58.6865 63.16 58.6865C49.4241 58.6865 38.2869 47.5509 38.2869 33.8134C38.31 20.0862 49.4328 8.9625 63.16 8.94026Z" fill="#C9849D"/>
<path d="M63.1608 71.2495C50.1414 71.2495 38.0342 76.3001 29.0501 85.4884C19.938 94.803 14.9375 107.518 14.9375 121.326C14.9415 122.726 16.076 123.86 17.4759 123.864H108.846C110.247 123.86 111.38 122.726 111.384 121.326C111.384 107.544 106.384 94.803 97.273 85.5138C88.2881 76.3255 76.1817 71.2495 63.1608 71.2495ZM20.0651 118.788C20.6237 107.316 25.0649 96.8338 32.6539 89.0668C40.6743 80.8684 51.5119 76.3517 63.1361 76.3517C74.7603 76.3517 85.598 80.8684 93.6176 89.0668C101.232 96.8338 105.649 107.316 106.207 118.788H20.0651Z" fill="#C9849D"/>
</svg>
