<svg width="32" height="32" viewBox="0 0 32 32" fill="none" xmlns="http://www.w3.org/2000/svg">
<path d="M31.1603 24.6864L24.6834 20.367C23.8614 19.8233 22.7597 20.0022 22.152 20.7781L20.2653 23.2039C20.0229 23.5236 19.5821 23.6163 19.2314 23.4215L18.8725 23.2237C17.6828 22.5752 16.2025 21.7679 13.22 18.7843C10.2375 15.8008 9.42858 14.3193 8.78011 13.1318L8.58333 12.773C8.3858 12.4223 8.47678 11.9796 8.79661 11.7352L11.2208 9.84914C11.9964 9.24142 12.1755 8.13995 11.6324 7.31776L7.31308 0.84085C6.75648 0.00359905 5.63977 -0.247739 4.77808 0.270247L2.06967 1.89719C1.21867 2.39749 0.594329 3.20775 0.327556 4.15817C-0.647736 7.71177 0.0859667 13.8447 9.12038 22.8802C16.3071 30.0663 21.6572 31.9989 25.3345 31.9989C26.1808 32.0025 27.0238 31.8924 27.8408 31.6715C28.7915 31.405 29.6018 30.7806 30.1018 29.9293L31.7304 27.2226C32.2491 26.3607 31.9979 25.2433 31.1603 24.6864ZM30.8115 26.6754L29.1867 29.3838C28.8277 29.9982 28.2449 30.45 27.5603 30.6444C24.2797 31.5451 18.5483 30.7991 9.87489 22.1257C1.20149 13.4523 0.455537 7.72139 1.35622 4.44032C1.55094 3.75492 2.00325 3.17132 2.6184 2.81174L5.32681 1.18692C5.7007 0.961957 6.18537 1.071 6.4269 1.43432L8.77324 4.95699L10.7426 7.91068C10.9784 8.26731 10.9009 8.7453 10.5645 9.0092L8.13977 10.8953C7.40188 11.4595 7.19116 12.4804 7.64547 13.2907L7.838 13.6405C8.51953 14.8905 9.36684 16.4454 12.4603 19.5383C15.5537 22.6312 17.1081 23.4786 18.3575 24.16L18.7078 24.353C19.518 24.8073 20.539 24.5966 21.1032 23.8587L22.9893 21.434C23.2533 21.0978 23.7311 21.0204 24.0878 21.2559L30.5642 25.5753C30.9278 25.8166 31.0368 26.3016 30.8115 26.6754Z" fill="#C9849D"/>
</svg>
