<svg width="32" height="32" viewBox="0 0 32 32" fill="none" xmlns="http://www.w3.org/2000/svg">
<path d="M15.79 15.9406C19.9253 15.9406 23.2773 12.5885 23.2773 8.45334C23.2773 4.31842 19.9253 0.966064 15.79 0.966064C11.6551 0.966064 8.30273 4.31842 8.30273 8.45334C8.30591 12.5871 11.6563 15.9374 15.79 15.9406ZM15.79 2.23506C19.2244 2.23506 22.0083 5.01896 22.0083 8.45334C22.0083 11.8877 19.2244 14.6716 15.79 14.6716C12.356 14.6716 9.57173 11.8877 9.57173 8.45334C9.57749 5.02154 12.3582 2.24063 15.79 2.23506Z" fill="#C9849D"/>
<path d="M15.7902 17.8125C12.5354 17.8125 9.50854 19.0751 7.26251 21.3722C4.98451 23.7009 3.73438 26.8796 3.73438 30.3317C3.73537 30.6817 4.019 30.9651 4.36898 30.9661H27.2116C27.5618 30.9651 27.845 30.6817 27.846 30.3317C27.846 26.8862 26.5961 23.7009 24.3183 21.3786C22.072 19.0815 19.0454 17.8125 15.7902 17.8125ZM5.01629 29.6971C5.15592 26.8292 6.26622 24.2086 8.16347 22.2668C10.1686 20.2172 12.878 19.0881 15.784 19.0881C18.6901 19.0881 21.3995 20.2172 23.4044 22.2668C25.308 24.2086 26.4121 26.8292 26.5518 29.6971H5.01629Z" fill="#C9849D"/>
</svg>
