<svg width="32" height="32" viewBox="0 0 32 32" fill="none" xmlns="http://www.w3.org/2000/svg">
<path d="M15.79 15.9406C19.9253 15.9406 23.2773 12.5885 23.2773 8.45334C23.2773 4.31842 19.9253 0.966064 15.79 0.966064C11.6551 0.966064 8.30273 4.31842 8.30273 8.45334C8.30591 12.5871 11.6563 15.9374 15.79 15.9406ZM15.79 2.23506C19.2244 2.23506 22.0083 5.01896 22.0083 8.45334C22.0083 11.8877 19.2244 14.6716 15.79 14.6716C12.356 14.6716 9.57173 11.8877 9.57173 8.45334C9.57749 5.02154 12.3582 2.24063 15.79 2.23506Z" fill="#C4C4C4"/>
<path d="M15.7901 17.8124C12.5352 17.8124 9.50842 19.0751 7.26239 21.3722C4.98439 23.7008 3.73425 26.8796 3.73425 30.3317C3.73525 30.6816 4.01888 30.9651 4.36885 30.9661H27.2115C27.5617 30.9651 27.8449 30.6816 27.8459 30.3317C27.8459 26.8861 26.5959 23.7008 24.3181 21.3785C22.0719 19.0814 19.0453 17.8124 15.7901 17.8124ZM5.01617 29.6971C5.1558 26.8291 6.2661 24.2085 8.16334 22.2668C10.1684 20.2172 12.8779 19.088 15.7839 19.088C18.69 19.088 21.3994 20.2172 23.4043 22.2668C25.3079 24.2085 26.412 26.8291 26.5517 29.6971H5.01617Z" fill="#C4C4C4"/>
</svg>
