<svg width="32" height="31" viewBox="0 0 32 31" fill="none" xmlns="http://www.w3.org/2000/svg">
<path d="M29.776 12.1136C30.4272 12.0099 31.0393 12.4525 31.1432 13.1022C31.9497 17.8626 30.4614 22.7239 27.1266 26.2222C21.2784 32.357 11.553 32.6001 5.40423 26.7652C-0.744556 20.9302 -0.988149 11.2268 4.86003 5.09209C10.7082 -1.04266 20.4336 -1.28577 26.5823 4.54912C27.0631 5.00534 27.9012 6.12392 27.2726 6.83866C26.7834 7.395 25.2822 6.40328 25.2822 6.40328C22.2441 3.22553 18.0293 2.01913 13.6276 2.76514C6.47024 3.97824 1.65359 10.7507 2.86945 17.8919C4.08532 25.033 10.8732 29.8387 18.0306 28.6256C25.188 27.4125 30.0046 20.64 28.7887 13.4989L28.7852 13.4776C28.6813 12.828 29.1249 12.2172 29.776 12.1136Z" fill="#C9849D"/>
</svg>
