<svg width="32" height="32" viewBox="0 0 32 32" fill="none" xmlns="http://www.w3.org/2000/svg">
<g clip-path="url(#clip0)">
<path d="M31.0068 10.4885C30.9882 10.4742 30.9692 10.4606 30.9498 10.4478C30.568 10.1882 30.1076 10.0364 29.6124 10.0364H25.4035C25.7622 9.74522 25.9692 9.31593 25.9719 8.85155C25.9749 8.37367 25.7616 7.92993 25.387 7.63404L17.0886 1.07941C16.725 0.792344 16.2404 0.739683 15.8238 0.942133C15.4073 1.14452 15.1486 1.55843 15.1486 2.02224V4.56146H7.20357C6.26193 4.56146 5.49241 5.32892 5.48816 6.27212L5.47071 10.0364H2.38762C1.69171 10.0364 1.06453 10.3363 0.627738 10.8138C0.607287 10.835 0.587836 10.8575 0.569073 10.8809C0.214583 11.2983 0 11.8386 0 12.4284V28.7877C0 29.3899 0.223714 29.9403 0.591651 30.3613C0.610226 30.3835 0.629301 30.4051 0.649503 30.4252C1.08524 30.8892 1.70303 31.1798 2.38762 31.1798H29.6124C30.929 31.1798 32.0001 30.1067 32.0001 28.7877V12.4284C32 11.6306 31.6078 10.9233 31.0068 10.4885ZM1.87277 13.0849L11.831 20.6983L1.87277 28.1638V13.0849ZM5.97799 12.1145C6.30984 12.4484 6.75158 12.6324 7.22183 12.6324H15.2382V15.3204C15.2244 16.2855 16.384 16.9646 17.2543 16.3152L22.9696 11.9126H28.0042L16.9699 20.3549C15.8417 21.1639 14.7771 20.6929 13.9081 19.9261L3.42645 11.9126H5.80531C5.85728 11.9834 5.91488 12.051 5.97799 12.1145ZM30.1272 28.579L19.6094 20.6961L30.1272 12.6489V28.579ZM13.3796 21.8807C14.7232 22.8805 16.6597 22.9238 18.0613 21.8791L27.9675 29.3035H3.47848L13.3796 21.8807ZM7.36018 6.43767H16.085C16.6021 6.43767 17.0213 6.01763 17.0213 5.49953V3.41556L23.8876 8.83873L17.111 14.0588V11.6942C17.111 11.1761 16.6918 10.7561 16.1746 10.7561H7.34016L7.36018 6.43767Z" fill="#C9849D"/>
</g>
<defs>
<clipPath id="clip0">
<rect width="32" height="32" fill="white"/>
</clipPath>
</defs>
</svg>
