<svg width="64" height="64" viewBox="0 0 64 64" fill="none" xmlns="http://www.w3.org/2000/svg">
<path d="M39.25 46.125L29.375 55.125V46.125H39.25Z" fill="#D1B288"/>
<path d="M64 7.75L29.1297 45.9919V55.125L18.125 45.9919L64 7.75Z" fill="#EACA9B"/>
<path d="M64 7.75L18.3154 46.125H0.440488C-0.00817833 46.125 -0.16854 45.5285 0.218181 45.3008L64 7.75Z" fill="#FFE8C2"/>
<path d="M8.71827 43.7071C8.2696 43.7071 8.10866 43.1106 8.49597 42.8829L54.2266 15.9596L64 7.75L0.218468 45.3002C-0.168834 45.5285 -0.00789208 46.125 0.440197 46.125H18.3157L21.1941 43.7071H8.71827Z" fill="#F4DAB5"/>
<path d="M64 7.75L55.5907 45.6479C55.5289 45.927 55.2836 46.125 55.0007 46.125H29.375L64 7.75Z" fill="#FFE8C2"/>
</svg>
