<svg width="24" height="24" viewBox="0 0 24 24" fill="none" xmlns="http://www.w3.org/2000/svg">
<path d="M14.1094 0H9.89062C8.72339 0 7.78125 0.942141 7.78125 2.10938V3.51562C7.78125 3.90933 8.09058 4.21875 8.48438 4.21875H15.5156C15.9094 4.21875 16.2188 3.90933 16.2188 3.51562V2.10938C16.2188 0.942141 15.2766 0 14.1094 0ZM14.8125 2.8125H9.1875V2.10938C9.1875 1.71558 9.49683 1.40625 9.89062 1.40625H14.1094C14.5032 1.40625 14.8125 1.71558 14.8125 2.10938V2.8125Z" fill="#AEADB3"/>
<path d="M16.2188 2.10938V3.51562C16.2188 3.90933 15.9094 4.21875 15.5156 4.21875H12V2.8125H14.8125V2.10938C14.8125 1.71558 14.5032 1.40625 14.1094 1.40625H12V0H14.1094C15.2766 0 16.2188 0.942141 16.2188 2.10938Z" fill="#8B8892"/>
<path d="M20.4377 5.625H3.56275C3.15498 5.625 2.83145 5.97656 2.85962 6.38433L4.15332 22.0734C4.2377 23.1563 5.15181 24 6.24864 24H17.7519C18.8487 24 19.7628 23.1563 19.8472 22.0734L21.1409 6.38433C21.169 5.97656 20.8455 5.625 20.4377 5.625Z" fill="#C8C6CD"/>
<path d="M21.1406 6.38433L19.8469 22.0734C19.7625 23.1563 18.8484 24 17.7516 24H12V5.625H20.4375C20.8453 5.625 21.1688 5.97656 21.1406 6.38433Z" fill="#AEADB3"/>
<path d="M20.4375 2.8125H3.5625C2.39527 2.8125 1.45312 3.75464 1.45312 4.92188V6.32812C1.45312 6.72192 1.76245 7.03125 2.15625 7.03125H21.8438C22.2375 7.03125 22.5469 6.72192 22.5469 6.32812V4.92188C22.5469 3.75464 21.6047 2.8125 20.4375 2.8125Z" fill="#E5E5E5"/>
<path d="M12.7031 9.14062V19.0781C12.7031 19.5422 12.3516 19.7812 12 19.7812C11.6484 19.7812 11.2969 19.5422 11.2969 19.0781V9.14062C11.2969 8.67652 11.6484 8.4375 12 8.4375C12.3516 8.4375 12.7031 8.67652 12.7031 9.14062Z" fill="#AEADB3"/>
<path d="M15.5156 19.0784V9.1409C15.5156 8.21405 16.9219 8.21025 16.9219 9.1409V19.0784C16.9219 20.0053 15.5156 20.0091 15.5156 19.0784Z" fill="#8B8892"/>
<path d="M7.07812 19.0784V9.1409C7.07812 8.21405 8.48438 8.21025 8.48438 9.1409V19.0784C8.48438 20.0053 7.07812 20.0091 7.07812 19.0784Z" fill="#AEADB3"/>
<path d="M12.7031 9.14062V19.0781C12.7031 19.5422 12.3516 19.7812 12 19.7812V8.4375C12.3516 8.4375 12.7031 8.67652 12.7031 9.14062Z" fill="#8B8892"/>
<path d="M22.5469 4.92188V6.32812C22.5469 6.72192 22.2375 7.03125 21.8438 7.03125H12V2.8125H20.4375C21.6047 2.8125 22.5469 3.75464 22.5469 4.92188Z" fill="#D9D9D9"/>
</svg>
