<svg width="24" height="24" viewBox="0 0 24 24" fill="none" xmlns="http://www.w3.org/2000/svg">
<g clip-path="url(#clip0)">
<path d="M12.0191 20.4001C7.38723 20.4001 3.61914 16.6309 3.61914 11.9999V0.9C3.61914 0.403198 4.02234 0 4.51914 0C5.01594 0 5.41914 0.403198 5.41914 0.9V11.9999C5.41914 15.6384 8.37952 18.6001 12.0191 18.6001C15.6588 18.6001 18.6192 15.6384 18.6192 11.9999V0.9C18.6192 0.403198 19.0224 0 19.5192 0C20.016 0 20.4192 0.403198 20.4192 0.9V11.9999C20.4192 16.6309 16.6511 20.4001 12.0191 20.4001Z" fill="#C9849D"/>
<path d="M6.9189 1.8H2.11875C1.62195 1.8 1.21875 1.3968 1.21875 0.9C1.21875 0.403198 1.62195 0 2.11875 0H6.9189C7.4157 0 7.8189 0.403198 7.8189 0.9C7.8189 1.3968 7.4157 1.8 6.9189 1.8Z" fill="#C9849D"/>
<path d="M21.9187 1.8H17.1188C16.6219 1.8 16.2188 1.3968 16.2188 0.9C16.2188 0.403198 16.6219 0 17.1188 0H21.9187C22.4155 0 22.8187 0.403198 22.8187 0.9C22.8187 1.3968 22.4155 1.8 21.9187 1.8Z" fill="#C9849D"/>
<path d="M20.7189 24.0001H3.31895C2.82214 24.0001 2.41895 23.5969 2.41895 23.1001C2.41895 22.6033 2.82214 22.2001 3.31895 22.2001H20.7189C21.2157 22.2001 21.6189 22.6033 21.6189 23.1001C21.6189 23.5969 21.2157 24.0001 20.7189 24.0001Z" fill="#C9849D"/>
</g>
<defs>
<clipPath id="clip0">
<rect width="24" height="24" fill="white"/>
</clipPath>
</defs>
</svg>
