<svg width="22" height="24" viewBox="0 0 22 24" fill="none" xmlns="http://www.w3.org/2000/svg">
<path d="M4.4966 4.75927C8.03991 1.55411 13.3426 1.50511 16.935 4.43091L14.0876 4.53873C13.72 4.55343 13.4357 4.85729 13.4504 5.22485C13.4652 5.58261 13.7592 5.86196 14.1121 5.86196C14.1219 5.86196 14.1268 5.86196 14.1366 5.86196L18.5081 5.70023C18.8659 5.68553 19.1452 5.39638 19.1452 5.03862V4.98961C19.1452 4.97981 19.1452 4.97491 19.1452 4.96511V4.96021L18.9835 0.637656C18.9688 0.270092 18.6601 -0.014157 18.2974 0.000545557C17.9298 0.0152481 17.6456 0.319101 17.6603 0.686664L17.7632 3.39683C15.9842 1.94128 13.7935 1.09834 11.4509 0.980715C8.5496 0.83369 5.76102 1.82856 3.60954 3.7791C0.649431 6.45987 -0.605186 10.5374 0.335777 14.4188C0.40929 14.7227 0.678836 14.9236 0.977788 14.9236C1.0317 14.9236 1.08071 14.9187 1.13462 14.904C1.48748 14.8158 1.70801 14.4581 1.6198 14.1052C0.796457 10.6942 1.89425 7.11168 4.4966 4.75927Z" fill="#C9849D"/>
<path d="M21.6642 9.58178C21.576 9.22892 21.2182 9.00839 20.8654 9.0966C20.5125 9.18482 20.292 9.54258 20.3802 9.89544C21.2084 13.3064 20.1057 16.889 17.5034 19.2414C15.6754 20.8929 13.3818 21.7065 11.098 21.7065C8.91709 21.7065 6.74112 20.9665 4.98661 19.506L7.86831 19.2463C8.23097 19.212 8.50052 18.8934 8.46622 18.5258C8.43191 18.1583 8.11335 17.8936 7.74579 17.9279L3.38893 18.32C3.02627 18.3543 2.75672 18.6729 2.79103 19.0404L3.1831 23.3973C3.2125 23.7403 3.50165 24.0001 3.83981 24.0001C3.85942 24.0001 3.87902 24.0001 3.89862 23.9952C4.26129 23.9609 4.53083 23.6423 4.49653 23.2748L4.26129 20.6234C6.04029 22.0642 8.22117 22.9023 10.5491 23.0199C10.7353 23.0297 10.9215 23.0346 11.1029 23.0346C13.8032 23.0346 16.3713 22.0446 18.3904 20.2215C21.3505 17.5408 22.6052 13.4682 21.6642 9.58178Z" fill="#C9849D"/>
</svg>
