<svg width="64" height="64" viewBox="0 0 64 64" fill="none" xmlns="http://www.w3.org/2000/svg">
<g clip-path="url(#clip0)">
<path d="M62.6812 46.1145L40.0708 8.27605C38.3439 5.42317 35.341 3.69629 32 3.69629C28.659 3.69629 25.656 5.42317 23.9291 8.27605L1.31869 46.1145C-0.40781 49.0801 -0.445435 52.6088 1.24382 55.5743C2.93295 58.5396 5.97333 60.304 9.38946 60.304H54.6103C58.0264 60.304 61.0669 58.5396 62.7559 55.5743C64.4454 52.6088 64.4078 49.0801 62.6812 46.1145Z" fill="#E50027"/>
<path d="M62.7562 55.5743C61.0671 58.5396 58.0267 60.304 54.6105 60.304H32V3.69641C35.3409 3.69641 38.344 5.42329 40.0709 8.27617L62.6813 46.1146C64.4078 49.0801 64.4454 52.6088 62.7562 55.5743Z" fill="#C1001F"/>
<path d="M9.38876 56.5499C7.31026 56.5499 5.53238 55.5162 4.50588 53.7163C3.4795 51.9145 3.49775 49.8304 4.5645 48.0013L27.1539 10.1935C28.1877 8.48521 30.0059 7.44958 32.0001 7.44958C33.9942 7.44958 35.8126 8.48509 36.8609 10.2192L59.4541 48.0305C60.5026 49.8305 60.5209 51.9145 59.4944 53.7162C58.468 55.5162 56.69 56.5498 54.6115 56.5498H9.38876V56.5499Z" fill="#FD003A"/>
<path d="M54.6115 56.5499C56.69 56.5499 58.4679 55.5162 59.4944 53.7163C60.5208 51.9145 60.5026 49.8304 59.4542 48.0307L36.8609 10.2191C35.8124 8.48521 33.9943 7.44946 32 7.44946V56.5499H54.6115Z" fill="#E50027"/>
<path d="M35.7537 19.0119V34.0272C35.7537 36.0918 34.0645 37.781 32 37.781C29.9355 37.781 28.2461 36.0917 28.2461 34.0272V19.0119C28.2461 16.9473 29.9353 15.2581 32 15.2581C34.0646 15.2581 35.7537 16.9473 35.7537 19.0119Z" fill="#E1E4FB"/>
<path d="M35.7538 19.0119V34.0272C35.7538 36.0918 34.0645 37.781 32 37.781V15.2581C34.0645 15.2581 35.7538 16.9473 35.7538 19.0119Z" fill="#C5C9F7"/>
<path d="M31.9999 41.535C28.8841 41.535 26.3691 44.0499 26.3691 47.1658C26.3691 50.2813 28.884 52.7966 31.9999 52.7966C35.1158 52.7966 37.6306 50.2814 37.6306 47.1658C37.6306 44.05 35.1155 41.535 31.9999 41.535Z" fill="#E1E4FB"/>
<path d="M37.6308 47.1657C37.6308 50.2812 35.1159 52.7964 32 52.7964V41.535C35.1156 41.535 37.6308 44.05 37.6308 47.1657Z" fill="#C5C9F7"/>
</g>
<defs>
<clipPath id="clip0">
<rect width="64" height="64" fill="white"/>
</clipPath>
</defs>
</svg>
