<svg width="32" height="32" viewBox="0 0 32 32" fill="none" xmlns="http://www.w3.org/2000/svg">
<path d="M30.9375 29.1313L23.4875 21.6812C25.3062 19.4625 26.3937 16.6313 26.3937 13.5375C26.3937 6.44375 20.6375 0.6875 13.5437 0.6875C6.44375 0.6875 0.6875 6.44375 0.6875 13.5437C0.6875 20.6437 6.44375 26.4 13.5437 26.4C16.6313 26.4 19.4688 25.3125 21.6875 23.4937L29.1313 30.9375C29.6313 31.4375 30.4375 31.4375 30.9375 30.9375C31.4375 30.4375 31.4375 29.6313 30.9375 29.1313ZM3.2375 13.5437C3.2375 7.85625 7.85 3.24375 13.5375 3.24375C19.225 3.24375 23.8375 7.85625 23.8375 13.5437C23.8375 19.2313 19.225 23.8438 13.5375 23.8438C7.85 23.8438 3.2375 19.2313 3.2375 13.5437Z" fill="white"/>
</svg>
