<svg width="64" height="64" viewBox="0 0 64 64" fill="none" xmlns="http://www.w3.org/2000/svg">
<g clip-path="url(#clip0)">
<path d="M36.8321 1.62666C36.5157 1.36966 36.0992 1.27141 35.7014 1.36003L1.03481 9.36003C0.424684 9.50028 -0.0058156 10.046 5.94007e-05 10.672V56.0054C0.000309401 56.6633 0.480434 57.2228 1.13068 57.3228L35.7973 62.6562C36.5252 62.768 37.2059 62.2688 37.3178 61.541C37.3281 61.4742 37.3333 61.4065 37.3333 61.3389V2.67203C37.3346 2.26541 37.1499 1.88053 36.8321 1.62666Z" fill="#1565C0"/>
<path d="M62.6666 57.3385H35.9999C35.2635 57.3385 34.6665 56.7415 34.6665 56.0051C34.6665 55.2688 35.2635 54.6718 35.9999 54.6718H61.3333V9.3385H35.9999C35.2635 9.3385 34.6665 8.7415 34.6665 8.00513C34.6665 7.26875 35.2635 6.67188 35.9999 6.67188H62.6665C63.4029 6.67188 63.9999 7.26888 63.9999 8.00525V56.0052C63.9999 56.7416 63.403 57.3385 62.6666 57.3385Z" fill="#1565C0"/>
<path d="M22.6666 44.0056C22.0725 44.005 21.5506 43.6112 21.3866 43.0402L17.3333 28.8588L13.2799 43.0402C12.9871 43.7478 12.1761 44.0842 11.4684 43.7915C11.1281 43.6507 10.8579 43.3805 10.7171 43.0402L5.3839 24.3736C5.16065 23.6718 5.54865 22.9221 6.2504 22.6988C6.95215 22.4756 7.7019 22.8636 7.92515 23.5653C7.93302 23.5901 7.94015 23.6151 7.94665 23.6402L11.9999 37.8188L16.0533 23.6376C16.346 22.93 17.157 22.5936 17.8648 22.8863C18.205 23.0271 18.4753 23.2973 18.616 23.6376L22.6666 37.819L26.72 23.6403C26.9119 22.9386 27.6364 22.5252 28.3381 22.7171C28.3481 22.7198 28.358 22.7227 28.368 22.7256C29.0755 22.9283 29.4849 23.666 29.2826 24.3736L23.9493 43.0402C23.785 43.6122 23.2616 44.0061 22.6666 44.0056Z" fill="#FAFAFA"/>
<path d="M57.3333 17.3386H35.9999C35.2635 17.3386 34.6665 16.7416 34.6665 16.0052C34.6665 15.2689 35.2635 14.6719 35.9999 14.6719H57.3333C58.0696 14.6719 58.6666 15.2689 58.6666 16.0052C58.6666 16.7417 58.0696 17.3386 57.3333 17.3386Z" fill="#1565C0"/>
<path d="M57.3333 25.3386H35.9999C35.2635 25.3386 34.6665 24.7416 34.6665 24.0052C34.6665 23.2689 35.2635 22.6719 35.9999 22.6719H57.3333C58.0696 22.6719 58.6666 23.2689 58.6666 24.0052C58.6666 24.7416 58.0696 25.3386 57.3333 25.3386Z" fill="#1565C0"/>
<path d="M57.3333 33.3386H35.9999C35.2635 33.3386 34.6665 32.7416 34.6665 32.0052C34.6665 31.2689 35.2635 30.6719 35.9999 30.6719H57.3333C58.0696 30.6719 58.6666 31.2689 58.6666 32.0052C58.6666 32.7417 58.0696 33.3386 57.3333 33.3386Z" fill="#1565C0"/>
<path d="M57.3333 41.3386H35.9999C35.2635 41.3386 34.6665 40.7416 34.6665 40.0052C34.6665 39.2689 35.2635 38.6719 35.9999 38.6719H57.3333C58.0696 38.6719 58.6666 39.2689 58.6666 40.0052C58.6666 40.7417 58.0696 41.3386 57.3333 41.3386Z" fill="#1565C0"/>
<path d="M57.3333 49.3386H35.9999C35.2635 49.3386 34.6665 48.7416 34.6665 48.0052C34.6665 47.2689 35.2635 46.6719 35.9999 46.6719H57.3333C58.0696 46.6719 58.6666 47.2689 58.6666 48.0052C58.6666 48.7417 58.0696 49.3386 57.3333 49.3386Z" fill="#1565C0"/>
</g>
<defs>
<clipPath id="clip0">
<rect width="64" height="64" fill="white"/>
</clipPath>
</defs>
</svg>
