<svg width="30" height="32" viewBox="0 0 30 32" fill="none" xmlns="http://www.w3.org/2000/svg">
<path d="M29.0665 4.85388L24.6433 0.43075C24.3655 0.153 23.9962 0 23.6033 0H4.98017C4.16923 0 3.50942 0.659812 3.50942 1.47075V16.0322H2.47517C1.38792 16.0322 0.503418 16.9168 0.503418 18.004V27.0221C0.503418 28.1094 1.38792 28.9939 2.47517 28.9939H18.0064C18.8174 28.9939 19.4772 28.3341 19.4772 27.5232V20.5091C19.4772 19.6981 18.8174 19.0383 18.0064 19.0383H2.47517C1.90486 19.0383 1.44092 18.5744 1.44092 18.0041C1.44092 17.4338 1.90486 16.9698 2.47517 16.9698H3.50942V17.5033C3.50942 17.7621 3.71929 17.972 3.97817 17.972C4.23704 17.972 4.44692 17.7621 4.44692 17.5033V1.47075C4.44692 1.17669 4.68617 0.9375 4.98017 0.9375H23.0487V5.47881C23.0487 6.01356 23.4837 6.44863 24.0185 6.44863H28.5598V30.5292C28.5598 30.8233 28.3205 31.0625 28.0265 31.0625H4.98017C4.68611 31.0625 4.44692 30.8233 4.44692 30.5292C4.44692 30.2704 4.23704 30.0605 3.97817 30.0605C3.71929 30.0605 3.50942 30.2704 3.50942 30.5292C3.50942 31.3403 4.16923 32 4.98017 32H28.0265C28.8375 32 29.4973 31.3402 29.4973 30.5292V5.89388C29.4974 5.50106 29.3444 5.13169 29.0665 4.85388ZM2.47517 19.9758H18.0064C18.3005 19.9758 18.5397 20.2151 18.5397 20.5091V27.5233C18.5397 27.8173 18.3004 28.0565 18.0064 28.0565H2.47517C1.90486 28.0565 1.44092 27.5925 1.44092 27.0222V19.6822C1.74173 19.8684 2.09611 19.9758 2.47517 19.9758ZM23.9862 5.47881V1.09956L28.3979 5.51113H24.0185C24.0007 5.51113 23.9862 5.49663 23.9862 5.47881Z" fill="white"/>
<path d="M9.49015 26.4787C9.52359 26.4845 9.55071 26.4891 9.9989 26.4891C10.2152 26.4891 10.5296 26.488 10.9901 26.4854C11.249 26.484 11.4576 26.273 11.4562 26.014C11.4548 25.7551 11.2425 25.5487 10.9848 25.5479C10.6575 25.5497 10.306 25.551 10.0381 25.5513V21.9702C10.0381 21.7113 9.82821 21.5015 9.56934 21.5015C9.31046 21.5015 9.10059 21.7113 9.10059 21.9702V26.0167C9.10059 26.245 9.26509 26.4402 9.49015 26.4787Z" fill="white"/>
<path d="M14.2463 26.489C15.0816 26.489 15.7828 25.9574 15.9136 25.225C16.0117 24.6752 15.7603 23.9564 14.7602 23.5875C14.2565 23.4017 13.788 23.1993 13.6509 23.1392C13.5216 23.0387 13.5258 22.8967 13.5342 22.838C13.5455 22.7593 13.602 22.5675 13.8826 22.4829C14.4731 22.305 15.0166 22.7353 15.0316 22.7474C15.2298 22.912 15.524 22.8858 15.6899 22.6884C15.8565 22.4902 15.8308 22.1945 15.6326 22.028C15.5951 21.9964 14.6995 21.2578 13.6122 21.5853C13.0673 21.7494 12.6818 22.1784 12.6062 22.7047C12.5354 23.1977 12.7491 23.6719 13.1637 23.9422C13.1844 23.9557 13.2061 23.9676 13.2288 23.9777C13.2522 23.9881 13.8088 24.2358 14.4357 24.4671C14.6221 24.5358 15.0493 24.7313 14.9906 25.0602C14.9475 25.3017 14.6573 25.5515 14.2462 25.5515C13.8333 25.5515 13.4356 25.3847 13.1823 25.1052C13.0085 24.9133 12.7121 24.8987 12.5202 25.0726C12.3284 25.2464 12.3138 25.5428 12.4876 25.7347C12.9158 26.2071 13.5731 26.489 14.2463 26.489Z" fill="white"/>
<path d="M4.19884 26.4033C4.2809 26.4611 4.37509 26.4889 4.4684 26.4889C4.61571 26.4889 4.76071 26.4196 4.85203 26.29L5.99634 24.6656L7.1389 26.2897C7.23015 26.4195 7.37527 26.4889 7.52271 26.4889C7.6159 26.4889 7.71002 26.4612 7.79202 26.4035C8.00377 26.2545 8.05465 25.9621 7.90571 25.7504L6.5699 23.8516L7.70502 22.2402C7.85415 22.0286 7.8034 21.7362 7.59177 21.5871C7.38015 21.438 7.08771 21.4887 6.93858 21.7004L5.9969 23.0371L5.05671 21.7005C4.90778 21.4888 4.61534 21.4379 4.40359 21.5869C4.19184 21.7358 4.14096 22.0282 4.2899 22.2399L5.42334 23.8511L4.08559 25.7501C3.93646 25.9618 3.98721 26.2542 4.19884 26.4033Z" fill="white"/>
<path d="M22.9841 8.98592C22.9841 8.45117 22.5491 8.01611 22.0144 8.01611H10.9922C10.4575 8.01611 10.0225 8.45117 10.0225 8.98592V15.499C10.0225 16.0337 10.4575 16.4687 10.9922 16.4687H22.0143C22.5491 16.4687 22.9841 16.0337 22.9841 15.499V8.98592H22.9841ZM14.968 13.0262V11.4587H18.0386V13.0262H14.968ZM18.0386 13.9637V15.5313H14.968V13.9637H18.0386ZM10.96 11.4587H14.0305V13.0263H10.96V11.4587ZM14.968 10.5212V8.95367H18.0386V10.5212H14.968ZM18.9761 11.4587H22.0466V13.0263H18.9761V11.4587ZM22.0466 8.98592V10.5212H18.9761V8.95361H22.0144C22.0321 8.95367 22.0466 8.96811 22.0466 8.98592ZM10.9922 8.95367H14.0305V10.5212H10.96V8.98599C10.96 8.96811 10.9744 8.95367 10.9922 8.95367ZM10.96 15.499V13.9638H14.0305V15.5313H10.9922C10.9744 15.5313 10.96 15.5168 10.96 15.499ZM22.0144 15.5313H18.9761V13.9637H22.0466V15.499C22.0466 15.5169 22.0321 15.5313 22.0144 15.5313Z" fill="white"/>
</svg>
